%TF.GenerationSoftware,KiCad,Pcbnew,10.0.2*%
%TF.CreationDate,2026-08-25T17:05:41+03:00*%
%TF.ProjectId,368255-2,33363832-3535-42d3-922e-6b696361645f,R0.2*%
%TF.SameCoordinates,Original*%
%TF.FileFunction,Legend,Top*%
%TF.FilePolarity,Positive*%
%FSLAX46Y46*%
G04 Gerber Fmt 4.6, Leading zero omitted, Abs format (unit mm)*
G04 Created by KiCad (PCBNEW 10.0.2) date 2026-08-25 17:05:41*
%MOMM*%
%LPD*%
G01*
G04 APERTURE LIST*
%ADD10C,0.150000*%
%ADD11C,0.100000*%
%ADD12C,0.222250*%
%ADD13C,0.120000*%
%ADD14C,3.700000*%
%ADD15C,2.200000*%
%ADD16C,2.600000*%
%ADD17C,1.500000*%
G04 APERTURE END LIST*
D10*
X167647969Y-106388866D02*
X168409874Y-106388866D01*
X168028921Y-106769819D02*
X168028921Y-106007914D01*
X169362254Y-105769819D02*
X168886064Y-105769819D01*
X168886064Y-105769819D02*
X168838445Y-106246009D01*
X168838445Y-106246009D02*
X168886064Y-106198390D01*
X168886064Y-106198390D02*
X168981302Y-106150771D01*
X168981302Y-106150771D02*
X169219397Y-106150771D01*
X169219397Y-106150771D02*
X169314635Y-106198390D01*
X169314635Y-106198390D02*
X169362254Y-106246009D01*
X169362254Y-106246009D02*
X169409873Y-106341247D01*
X169409873Y-106341247D02*
X169409873Y-106579342D01*
X169409873Y-106579342D02*
X169362254Y-106674580D01*
X169362254Y-106674580D02*
X169314635Y-106722200D01*
X169314635Y-106722200D02*
X169219397Y-106769819D01*
X169219397Y-106769819D02*
X168981302Y-106769819D01*
X168981302Y-106769819D02*
X168886064Y-106722200D01*
X168886064Y-106722200D02*
X168838445Y-106674580D01*
X169695588Y-105769819D02*
X170028921Y-106769819D01*
X170028921Y-106769819D02*
X170362254Y-105769819D01*
X167401609Y-81558207D02*
X167353990Y-81510588D01*
X167353990Y-81510588D02*
X167306370Y-81367731D01*
X167306370Y-81367731D02*
X167306370Y-81272493D01*
X167306370Y-81272493D02*
X167353990Y-81129636D01*
X167353990Y-81129636D02*
X167449228Y-81034398D01*
X167449228Y-81034398D02*
X167544466Y-80986779D01*
X167544466Y-80986779D02*
X167734942Y-80939160D01*
X167734942Y-80939160D02*
X167877799Y-80939160D01*
X167877799Y-80939160D02*
X168068275Y-80986779D01*
X168068275Y-80986779D02*
X168163513Y-81034398D01*
X168163513Y-81034398D02*
X168258751Y-81129636D01*
X168258751Y-81129636D02*
X168306370Y-81272493D01*
X168306370Y-81272493D02*
X168306370Y-81367731D01*
X168306370Y-81367731D02*
X168258751Y-81510588D01*
X168258751Y-81510588D02*
X168211132Y-81558207D01*
X167306370Y-82462969D02*
X167306370Y-81986779D01*
X167306370Y-81986779D02*
X168306370Y-81986779D01*
X168306370Y-82796303D02*
X167496847Y-82796303D01*
X167496847Y-82796303D02*
X167401609Y-82843922D01*
X167401609Y-82843922D02*
X167353990Y-82891541D01*
X167353990Y-82891541D02*
X167306370Y-82986779D01*
X167306370Y-82986779D02*
X167306370Y-83177255D01*
X167306370Y-83177255D02*
X167353990Y-83272493D01*
X167353990Y-83272493D02*
X167401609Y-83320112D01*
X167401609Y-83320112D02*
X167496847Y-83367731D01*
X167496847Y-83367731D02*
X168306370Y-83367731D01*
X168306370Y-83701065D02*
X168306370Y-84272493D01*
X167306370Y-83986779D02*
X168306370Y-83986779D01*
X167401609Y-85177255D02*
X167353990Y-85129636D01*
X167353990Y-85129636D02*
X167306370Y-84986779D01*
X167306370Y-84986779D02*
X167306370Y-84891541D01*
X167306370Y-84891541D02*
X167353990Y-84748684D01*
X167353990Y-84748684D02*
X167449228Y-84653446D01*
X167449228Y-84653446D02*
X167544466Y-84605827D01*
X167544466Y-84605827D02*
X167734942Y-84558208D01*
X167734942Y-84558208D02*
X167877799Y-84558208D01*
X167877799Y-84558208D02*
X168068275Y-84605827D01*
X168068275Y-84605827D02*
X168163513Y-84653446D01*
X168163513Y-84653446D02*
X168258751Y-84748684D01*
X168258751Y-84748684D02*
X168306370Y-84891541D01*
X168306370Y-84891541D02*
X168306370Y-84986779D01*
X168306370Y-84986779D02*
X168258751Y-85129636D01*
X168258751Y-85129636D02*
X168211132Y-85177255D01*
X167306370Y-85605827D02*
X168306370Y-85605827D01*
X167830180Y-85605827D02*
X167830180Y-86177255D01*
X167306370Y-86177255D02*
X168306370Y-86177255D01*
X171330180Y-81320112D02*
X171282561Y-81462969D01*
X171282561Y-81462969D02*
X171234942Y-81510588D01*
X171234942Y-81510588D02*
X171139704Y-81558207D01*
X171139704Y-81558207D02*
X170996847Y-81558207D01*
X170996847Y-81558207D02*
X170901609Y-81510588D01*
X170901609Y-81510588D02*
X170853990Y-81462969D01*
X170853990Y-81462969D02*
X170806370Y-81367731D01*
X170806370Y-81367731D02*
X170806370Y-80986779D01*
X170806370Y-80986779D02*
X171806370Y-80986779D01*
X171806370Y-80986779D02*
X171806370Y-81320112D01*
X171806370Y-81320112D02*
X171758751Y-81415350D01*
X171758751Y-81415350D02*
X171711132Y-81462969D01*
X171711132Y-81462969D02*
X171615894Y-81510588D01*
X171615894Y-81510588D02*
X171520656Y-81510588D01*
X171520656Y-81510588D02*
X171425418Y-81462969D01*
X171425418Y-81462969D02*
X171377799Y-81415350D01*
X171377799Y-81415350D02*
X171330180Y-81320112D01*
X171330180Y-81320112D02*
X171330180Y-80986779D01*
X170806370Y-82558207D02*
X171282561Y-82224874D01*
X170806370Y-81986779D02*
X171806370Y-81986779D01*
X171806370Y-81986779D02*
X171806370Y-82367731D01*
X171806370Y-82367731D02*
X171758751Y-82462969D01*
X171758751Y-82462969D02*
X171711132Y-82510588D01*
X171711132Y-82510588D02*
X171615894Y-82558207D01*
X171615894Y-82558207D02*
X171473037Y-82558207D01*
X171473037Y-82558207D02*
X171377799Y-82510588D01*
X171377799Y-82510588D02*
X171330180Y-82462969D01*
X171330180Y-82462969D02*
X171282561Y-82367731D01*
X171282561Y-82367731D02*
X171282561Y-81986779D01*
X171092085Y-82939160D02*
X171092085Y-83415350D01*
X170806370Y-82843922D02*
X171806370Y-83177255D01*
X171806370Y-83177255D02*
X170806370Y-83510588D01*
X170806370Y-83843922D02*
X171806370Y-83843922D01*
X170806370Y-84415350D02*
X171377799Y-83986779D01*
X171806370Y-84415350D02*
X171234942Y-83843922D01*
X171330180Y-84843922D02*
X171330180Y-85177255D01*
X170806370Y-85320112D02*
X170806370Y-84843922D01*
X170806370Y-84843922D02*
X171806370Y-84843922D01*
X171806370Y-84843922D02*
X171806370Y-85320112D01*
X174830180Y-81320112D02*
X174782561Y-81462969D01*
X174782561Y-81462969D02*
X174734942Y-81510588D01*
X174734942Y-81510588D02*
X174639704Y-81558207D01*
X174639704Y-81558207D02*
X174496847Y-81558207D01*
X174496847Y-81558207D02*
X174401609Y-81510588D01*
X174401609Y-81510588D02*
X174353990Y-81462969D01*
X174353990Y-81462969D02*
X174306370Y-81367731D01*
X174306370Y-81367731D02*
X174306370Y-80986779D01*
X174306370Y-80986779D02*
X175306370Y-80986779D01*
X175306370Y-80986779D02*
X175306370Y-81320112D01*
X175306370Y-81320112D02*
X175258751Y-81415350D01*
X175258751Y-81415350D02*
X175211132Y-81462969D01*
X175211132Y-81462969D02*
X175115894Y-81510588D01*
X175115894Y-81510588D02*
X175020656Y-81510588D01*
X175020656Y-81510588D02*
X174925418Y-81462969D01*
X174925418Y-81462969D02*
X174877799Y-81415350D01*
X174877799Y-81415350D02*
X174830180Y-81320112D01*
X174830180Y-81320112D02*
X174830180Y-80986779D01*
X174306370Y-82558207D02*
X174782561Y-82224874D01*
X174306370Y-81986779D02*
X175306370Y-81986779D01*
X175306370Y-81986779D02*
X175306370Y-82367731D01*
X175306370Y-82367731D02*
X175258751Y-82462969D01*
X175258751Y-82462969D02*
X175211132Y-82510588D01*
X175211132Y-82510588D02*
X175115894Y-82558207D01*
X175115894Y-82558207D02*
X174973037Y-82558207D01*
X174973037Y-82558207D02*
X174877799Y-82510588D01*
X174877799Y-82510588D02*
X174830180Y-82462969D01*
X174830180Y-82462969D02*
X174782561Y-82367731D01*
X174782561Y-82367731D02*
X174782561Y-81986779D01*
X174592085Y-82939160D02*
X174592085Y-83415350D01*
X174306370Y-82843922D02*
X175306370Y-83177255D01*
X175306370Y-83177255D02*
X174306370Y-83510588D01*
X174306370Y-83843922D02*
X175306370Y-83843922D01*
X174306370Y-84415350D02*
X174877799Y-83986779D01*
X175306370Y-84415350D02*
X174734942Y-83843922D01*
X174830180Y-84843922D02*
X174830180Y-85177255D01*
X174306370Y-85320112D02*
X174306370Y-84843922D01*
X174306370Y-84843922D02*
X175306370Y-84843922D01*
X175306370Y-84843922D02*
X175306370Y-85320112D01*
X174211132Y-85510589D02*
X174211132Y-86272493D01*
X175211132Y-86462970D02*
X175258751Y-86510589D01*
X175258751Y-86510589D02*
X175306370Y-86605827D01*
X175306370Y-86605827D02*
X175306370Y-86843922D01*
X175306370Y-86843922D02*
X175258751Y-86939160D01*
X175258751Y-86939160D02*
X175211132Y-86986779D01*
X175211132Y-86986779D02*
X175115894Y-87034398D01*
X175115894Y-87034398D02*
X175020656Y-87034398D01*
X175020656Y-87034398D02*
X174877799Y-86986779D01*
X174877799Y-86986779D02*
X174306370Y-86415351D01*
X174306370Y-86415351D02*
X174306370Y-87034398D01*
X177689819Y-96911904D02*
X178499342Y-96911904D01*
X178499342Y-96911904D02*
X178594580Y-96864285D01*
X178594580Y-96864285D02*
X178642200Y-96816666D01*
X178642200Y-96816666D02*
X178689819Y-96721428D01*
X178689819Y-96721428D02*
X178689819Y-96530952D01*
X178689819Y-96530952D02*
X178642200Y-96435714D01*
X178642200Y-96435714D02*
X178594580Y-96388095D01*
X178594580Y-96388095D02*
X178499342Y-96340476D01*
X178499342Y-96340476D02*
X177689819Y-96340476D01*
X178689819Y-95340476D02*
X178689819Y-95911904D01*
X178689819Y-95626190D02*
X177689819Y-95626190D01*
X177689819Y-95626190D02*
X177832676Y-95721428D01*
X177832676Y-95721428D02*
X177927914Y-95816666D01*
X177927914Y-95816666D02*
X177975533Y-95911904D01*
D11*
X172239523Y-51312580D02*
X172239523Y-52312580D01*
X171810952Y-51312580D02*
X171810952Y-51836390D01*
X171810952Y-51836390D02*
X171858571Y-51931628D01*
X171858571Y-51931628D02*
X171953809Y-51979247D01*
X171953809Y-51979247D02*
X172096666Y-51979247D01*
X172096666Y-51979247D02*
X172191904Y-51931628D01*
X172191904Y-51931628D02*
X172239523Y-51884009D01*
X171191904Y-51312580D02*
X171287142Y-51360200D01*
X171287142Y-51360200D02*
X171334761Y-51407819D01*
X171334761Y-51407819D02*
X171382380Y-51503057D01*
X171382380Y-51503057D02*
X171382380Y-51788771D01*
X171382380Y-51788771D02*
X171334761Y-51884009D01*
X171334761Y-51884009D02*
X171287142Y-51931628D01*
X171287142Y-51931628D02*
X171191904Y-51979247D01*
X171191904Y-51979247D02*
X171049047Y-51979247D01*
X171049047Y-51979247D02*
X170953809Y-51931628D01*
X170953809Y-51931628D02*
X170906190Y-51884009D01*
X170906190Y-51884009D02*
X170858571Y-51788771D01*
X170858571Y-51788771D02*
X170858571Y-51503057D01*
X170858571Y-51503057D02*
X170906190Y-51407819D01*
X170906190Y-51407819D02*
X170953809Y-51360200D01*
X170953809Y-51360200D02*
X171049047Y-51312580D01*
X171049047Y-51312580D02*
X171191904Y-51312580D01*
X170287142Y-51312580D02*
X170382380Y-51360200D01*
X170382380Y-51360200D02*
X170429999Y-51455438D01*
X170429999Y-51455438D02*
X170429999Y-52312580D01*
X169525237Y-51360200D02*
X169620475Y-51312580D01*
X169620475Y-51312580D02*
X169810951Y-51312580D01*
X169810951Y-51312580D02*
X169906189Y-51360200D01*
X169906189Y-51360200D02*
X169953808Y-51455438D01*
X169953808Y-51455438D02*
X169953808Y-51836390D01*
X169953808Y-51836390D02*
X169906189Y-51931628D01*
X169906189Y-51931628D02*
X169810951Y-51979247D01*
X169810951Y-51979247D02*
X169620475Y-51979247D01*
X169620475Y-51979247D02*
X169525237Y-51931628D01*
X169525237Y-51931628D02*
X169477618Y-51836390D01*
X169477618Y-51836390D02*
X169477618Y-51741152D01*
X169477618Y-51741152D02*
X169953808Y-51645914D01*
X169144284Y-52312580D02*
X168477618Y-52312580D01*
X168477618Y-52312580D02*
X168906189Y-51312580D01*
D12*
X49899712Y-62056166D02*
X49010712Y-62056166D01*
X49010712Y-62056166D02*
X49010712Y-61717499D01*
X49010712Y-61717499D02*
X49053045Y-61632833D01*
X49053045Y-61632833D02*
X49095379Y-61590499D01*
X49095379Y-61590499D02*
X49180045Y-61548166D01*
X49180045Y-61548166D02*
X49307045Y-61548166D01*
X49307045Y-61548166D02*
X49391712Y-61590499D01*
X49391712Y-61590499D02*
X49434045Y-61632833D01*
X49434045Y-61632833D02*
X49476379Y-61717499D01*
X49476379Y-61717499D02*
X49476379Y-62056166D01*
X49899712Y-60701499D02*
X49899712Y-61209499D01*
X49899712Y-60955499D02*
X49010712Y-60955499D01*
X49010712Y-60955499D02*
X49137712Y-61040166D01*
X49137712Y-61040166D02*
X49222379Y-61124833D01*
X49222379Y-61124833D02*
X49264712Y-61209499D01*
X62613332Y-47910712D02*
X63163665Y-47910712D01*
X63163665Y-47910712D02*
X62867332Y-48249379D01*
X62867332Y-48249379D02*
X62994332Y-48249379D01*
X62994332Y-48249379D02*
X63078998Y-48291712D01*
X63078998Y-48291712D02*
X63121332Y-48334045D01*
X63121332Y-48334045D02*
X63163665Y-48418712D01*
X63163665Y-48418712D02*
X63163665Y-48630379D01*
X63163665Y-48630379D02*
X63121332Y-48715045D01*
X63121332Y-48715045D02*
X63078998Y-48757379D01*
X63078998Y-48757379D02*
X62994332Y-48799712D01*
X62994332Y-48799712D02*
X62740332Y-48799712D01*
X62740332Y-48799712D02*
X62655665Y-48757379D01*
X62655665Y-48757379D02*
X62613332Y-48715045D01*
X63925665Y-47910712D02*
X63756332Y-47910712D01*
X63756332Y-47910712D02*
X63671665Y-47953045D01*
X63671665Y-47953045D02*
X63629332Y-47995379D01*
X63629332Y-47995379D02*
X63544665Y-48122379D01*
X63544665Y-48122379D02*
X63502332Y-48291712D01*
X63502332Y-48291712D02*
X63502332Y-48630379D01*
X63502332Y-48630379D02*
X63544665Y-48715045D01*
X63544665Y-48715045D02*
X63586999Y-48757379D01*
X63586999Y-48757379D02*
X63671665Y-48799712D01*
X63671665Y-48799712D02*
X63840999Y-48799712D01*
X63840999Y-48799712D02*
X63925665Y-48757379D01*
X63925665Y-48757379D02*
X63967999Y-48715045D01*
X63967999Y-48715045D02*
X64010332Y-48630379D01*
X64010332Y-48630379D02*
X64010332Y-48418712D01*
X64010332Y-48418712D02*
X63967999Y-48334045D01*
X63967999Y-48334045D02*
X63925665Y-48291712D01*
X63925665Y-48291712D02*
X63840999Y-48249379D01*
X63840999Y-48249379D02*
X63671665Y-48249379D01*
X63671665Y-48249379D02*
X63586999Y-48291712D01*
X63586999Y-48291712D02*
X63544665Y-48334045D01*
X63544665Y-48334045D02*
X63502332Y-48418712D01*
X64518332Y-48291712D02*
X64433666Y-48249379D01*
X64433666Y-48249379D02*
X64391332Y-48207045D01*
X64391332Y-48207045D02*
X64348999Y-48122379D01*
X64348999Y-48122379D02*
X64348999Y-48080045D01*
X64348999Y-48080045D02*
X64391332Y-47995379D01*
X64391332Y-47995379D02*
X64433666Y-47953045D01*
X64433666Y-47953045D02*
X64518332Y-47910712D01*
X64518332Y-47910712D02*
X64687666Y-47910712D01*
X64687666Y-47910712D02*
X64772332Y-47953045D01*
X64772332Y-47953045D02*
X64814666Y-47995379D01*
X64814666Y-47995379D02*
X64856999Y-48080045D01*
X64856999Y-48080045D02*
X64856999Y-48122379D01*
X64856999Y-48122379D02*
X64814666Y-48207045D01*
X64814666Y-48207045D02*
X64772332Y-48249379D01*
X64772332Y-48249379D02*
X64687666Y-48291712D01*
X64687666Y-48291712D02*
X64518332Y-48291712D01*
X64518332Y-48291712D02*
X64433666Y-48334045D01*
X64433666Y-48334045D02*
X64391332Y-48376379D01*
X64391332Y-48376379D02*
X64348999Y-48461045D01*
X64348999Y-48461045D02*
X64348999Y-48630379D01*
X64348999Y-48630379D02*
X64391332Y-48715045D01*
X64391332Y-48715045D02*
X64433666Y-48757379D01*
X64433666Y-48757379D02*
X64518332Y-48799712D01*
X64518332Y-48799712D02*
X64687666Y-48799712D01*
X64687666Y-48799712D02*
X64772332Y-48757379D01*
X64772332Y-48757379D02*
X64814666Y-48715045D01*
X64814666Y-48715045D02*
X64856999Y-48630379D01*
X64856999Y-48630379D02*
X64856999Y-48461045D01*
X64856999Y-48461045D02*
X64814666Y-48376379D01*
X64814666Y-48376379D02*
X64772332Y-48334045D01*
X64772332Y-48334045D02*
X64687666Y-48291712D01*
X65195666Y-47995379D02*
X65237999Y-47953045D01*
X65237999Y-47953045D02*
X65322666Y-47910712D01*
X65322666Y-47910712D02*
X65534333Y-47910712D01*
X65534333Y-47910712D02*
X65618999Y-47953045D01*
X65618999Y-47953045D02*
X65661333Y-47995379D01*
X65661333Y-47995379D02*
X65703666Y-48080045D01*
X65703666Y-48080045D02*
X65703666Y-48164712D01*
X65703666Y-48164712D02*
X65661333Y-48291712D01*
X65661333Y-48291712D02*
X65153333Y-48799712D01*
X65153333Y-48799712D02*
X65703666Y-48799712D01*
X66508000Y-47910712D02*
X66084666Y-47910712D01*
X66084666Y-47910712D02*
X66042333Y-48334045D01*
X66042333Y-48334045D02*
X66084666Y-48291712D01*
X66084666Y-48291712D02*
X66169333Y-48249379D01*
X66169333Y-48249379D02*
X66381000Y-48249379D01*
X66381000Y-48249379D02*
X66465666Y-48291712D01*
X66465666Y-48291712D02*
X66508000Y-48334045D01*
X66508000Y-48334045D02*
X66550333Y-48418712D01*
X66550333Y-48418712D02*
X66550333Y-48630379D01*
X66550333Y-48630379D02*
X66508000Y-48715045D01*
X66508000Y-48715045D02*
X66465666Y-48757379D01*
X66465666Y-48757379D02*
X66381000Y-48799712D01*
X66381000Y-48799712D02*
X66169333Y-48799712D01*
X66169333Y-48799712D02*
X66084666Y-48757379D01*
X66084666Y-48757379D02*
X66042333Y-48715045D01*
X67354667Y-47910712D02*
X66931333Y-47910712D01*
X66931333Y-47910712D02*
X66889000Y-48334045D01*
X66889000Y-48334045D02*
X66931333Y-48291712D01*
X66931333Y-48291712D02*
X67016000Y-48249379D01*
X67016000Y-48249379D02*
X67227667Y-48249379D01*
X67227667Y-48249379D02*
X67312333Y-48291712D01*
X67312333Y-48291712D02*
X67354667Y-48334045D01*
X67354667Y-48334045D02*
X67397000Y-48418712D01*
X67397000Y-48418712D02*
X67397000Y-48630379D01*
X67397000Y-48630379D02*
X67354667Y-48715045D01*
X67354667Y-48715045D02*
X67312333Y-48757379D01*
X67312333Y-48757379D02*
X67227667Y-48799712D01*
X67227667Y-48799712D02*
X67016000Y-48799712D01*
X67016000Y-48799712D02*
X66931333Y-48757379D01*
X66931333Y-48757379D02*
X66889000Y-48715045D01*
X67778000Y-48461045D02*
X68455334Y-48461045D01*
X68836334Y-47995379D02*
X68878667Y-47953045D01*
X68878667Y-47953045D02*
X68963334Y-47910712D01*
X68963334Y-47910712D02*
X69175001Y-47910712D01*
X69175001Y-47910712D02*
X69259667Y-47953045D01*
X69259667Y-47953045D02*
X69302001Y-47995379D01*
X69302001Y-47995379D02*
X69344334Y-48080045D01*
X69344334Y-48080045D02*
X69344334Y-48164712D01*
X69344334Y-48164712D02*
X69302001Y-48291712D01*
X69302001Y-48291712D02*
X68794001Y-48799712D01*
X68794001Y-48799712D02*
X69344334Y-48799712D01*
%TO.C,J23*%
D13*
X173476190Y-77950000D02*
X175876190Y-77950000D01*
X173476190Y-80350000D02*
X173476190Y-77950000D01*
X175876190Y-77950000D02*
X175876190Y-80350000D01*
X175876190Y-80350000D02*
X173476190Y-80350000D01*
%TO.C,J26*%
X45300000Y-87200000D02*
X47700000Y-87200000D01*
X45300000Y-89600000D02*
X45300000Y-87200000D01*
X47700000Y-87200000D02*
X47700000Y-89600000D01*
X47700000Y-89600000D02*
X45300000Y-89600000D01*
%TO.C,U1*%
X166875000Y-93765000D02*
X167155000Y-93765000D01*
X166875000Y-98535000D02*
X166875000Y-93765000D01*
X167155000Y-98535000D02*
X166875000Y-98535000D01*
X177115000Y-93765000D02*
X177395000Y-93765000D01*
X177395000Y-93765000D02*
X177395000Y-98535000D01*
X177395000Y-98535000D02*
X177115000Y-98535000D01*
X177125000Y-92900000D02*
X177595000Y-92560000D01*
X177595000Y-93240000D01*
X177125000Y-92900000D01*
G36*
X177595000Y-93240000D02*
G01*
X177125000Y-92900000D01*
X177595000Y-92560000D01*
X177595000Y-93240000D01*
G37*
%TO.C,J21*%
X166476190Y-77950000D02*
X168876190Y-77950000D01*
X166476190Y-80350000D02*
X166476190Y-77950000D01*
X168876190Y-77950000D02*
X168876190Y-80350000D01*
X168876190Y-80350000D02*
X166476190Y-80350000D01*
%TO.C,J24*%
X45300000Y-83700000D02*
X47700000Y-83700000D01*
X45300000Y-86100000D02*
X45300000Y-83700000D01*
X47700000Y-83700000D02*
X47700000Y-86100000D01*
X47700000Y-86100000D02*
X45300000Y-86100000D01*
%TO.C,J22*%
X169976190Y-77950000D02*
X172376190Y-77950000D01*
X169976190Y-80350000D02*
X169976190Y-77950000D01*
X172376190Y-77950000D02*
X172376190Y-80350000D01*
X172376190Y-80350000D02*
X169976190Y-80350000D01*
%TO.C,J25*%
X168111190Y-102200000D02*
X170511190Y-102200000D01*
X168111190Y-104600000D02*
X168111190Y-102200000D01*
X170511190Y-102200000D02*
X170511190Y-104600000D01*
X170511190Y-104600000D02*
X168111190Y-104600000D01*
%TO.C,J28*%
X45300000Y-94300000D02*
X47700000Y-94300000D01*
X45300000Y-96700000D02*
X45300000Y-94300000D01*
X47700000Y-94300000D02*
X47700000Y-96700000D01*
X47700000Y-96700000D02*
X45300000Y-96700000D01*
%TO.C,J27*%
X45300000Y-90700000D02*
X47700000Y-90700000D01*
X45300000Y-93100000D02*
X45300000Y-90700000D01*
X47700000Y-90700000D02*
X47700000Y-93100000D01*
X47700000Y-93100000D02*
X45300000Y-93100000D01*
%TD*%
D14*
%TO.C,P1*%
X182350000Y-51910000D03*
D15*
X179900000Y-59710000D03*
D14*
X107850000Y-51910000D03*
D15*
X58100000Y-59710000D03*
D14*
X55650000Y-51910000D03*
D16*
X175250000Y-56910000D03*
X169450000Y-56910000D03*
X172350000Y-59240000D03*
X175250000Y-65040000D03*
X169450000Y-65040000D03*
D17*
X115830000Y-65040000D03*
X118370000Y-65040000D03*
X120910000Y-65040000D03*
X123450000Y-65040000D03*
X125990000Y-65040000D03*
X128530000Y-65040000D03*
X131070000Y-65040000D03*
X133610000Y-65040000D03*
X136150000Y-65040000D03*
X138690000Y-65040000D03*
X141230000Y-65040000D03*
X143770000Y-65040000D03*
X146310000Y-65040000D03*
X148850000Y-65040000D03*
X151390000Y-65040000D03*
X153930000Y-65040000D03*
X156470000Y-65040000D03*
X159010000Y-65040000D03*
X161550000Y-65040000D03*
X115830000Y-62500000D03*
X118370000Y-62500000D03*
X120910000Y-62500000D03*
X123450000Y-62500000D03*
X125990000Y-62500000D03*
X128530000Y-62500000D03*
X131070000Y-62500000D03*
X133610000Y-62500000D03*
X136150000Y-62500000D03*
X138690000Y-62500000D03*
X141230000Y-62500000D03*
X143770000Y-62500000D03*
X146310000Y-62500000D03*
X148850000Y-62500000D03*
X151390000Y-62500000D03*
X153930000Y-62500000D03*
X156470000Y-62500000D03*
X159010000Y-62500000D03*
X161550000Y-62500000D03*
X115830000Y-56450000D03*
X118370000Y-56450000D03*
X120910000Y-56450000D03*
X123450000Y-56450000D03*
X125990000Y-56450000D03*
X128530000Y-56450000D03*
X131070000Y-56450000D03*
X133610000Y-56450000D03*
X136150000Y-56450000D03*
X138690000Y-56450000D03*
X141230000Y-56450000D03*
X143770000Y-56450000D03*
X146310000Y-56450000D03*
X148850000Y-56450000D03*
X151390000Y-56450000D03*
X153930000Y-56450000D03*
X156470000Y-56450000D03*
X159010000Y-56450000D03*
X161550000Y-56450000D03*
X115830000Y-53910000D03*
X118370000Y-53910000D03*
X120910000Y-53910000D03*
X123450000Y-53910000D03*
X125990000Y-53910000D03*
X128530000Y-53910000D03*
X131070000Y-53910000D03*
X133610000Y-53910000D03*
X136150000Y-53910000D03*
X138690000Y-53910000D03*
X141230000Y-53910000D03*
X143770000Y-53910000D03*
X146310000Y-53910000D03*
X148850000Y-53910000D03*
X151390000Y-53910000D03*
X153930000Y-53910000D03*
X156470000Y-53910000D03*
X159010000Y-53910000D03*
X161550000Y-53910000D03*
X99860000Y-53910000D03*
X97320000Y-53910000D03*
X94780000Y-53910000D03*
X92240000Y-53910000D03*
X89700000Y-53910000D03*
X87160000Y-53910000D03*
X84620000Y-53910000D03*
X82080000Y-53910000D03*
X99860000Y-56450000D03*
X97320000Y-56450000D03*
X94780000Y-56450000D03*
X92240000Y-56450000D03*
X89700000Y-56450000D03*
X87160000Y-56450000D03*
X84620000Y-56450000D03*
X82080000Y-56450000D03*
X99860000Y-62500000D03*
X97320000Y-62500000D03*
X94780000Y-62500000D03*
X92240000Y-62500000D03*
X89700000Y-62500000D03*
X87160000Y-62500000D03*
X84620000Y-62500000D03*
X82080000Y-62500000D03*
X99860000Y-65040000D03*
X97320000Y-65040000D03*
X94780000Y-65040000D03*
X92240000Y-65040000D03*
X89700000Y-65040000D03*
X87160000Y-65040000D03*
X84620000Y-65040000D03*
X82080000Y-65040000D03*
D16*
X74250000Y-56910000D03*
X68450000Y-56910000D03*
X62550000Y-56910000D03*
X71350000Y-59240000D03*
X65450000Y-59240000D03*
X74250000Y-65040000D03*
X68450000Y-65040000D03*
X62550000Y-65040000D03*
%TD*%
M02*
