%TF.GenerationSoftware,KiCad,Pcbnew,10.0.2*%
%TF.CreationDate,2026-08-25T17:05:41+03:00*%
%TF.ProjectId,368255-2,33363832-3535-42d3-922e-6b696361645f,R0.2*%
%TF.SameCoordinates,Original*%
%TF.FileFunction,Soldermask,Bot*%
%TF.FilePolarity,Negative*%
%FSLAX46Y46*%
G04 Gerber Fmt 4.6, Leading zero omitted, Abs format (unit mm)*
G04 Created by KiCad (PCBNEW 10.0.2) date 2026-08-25 17:05:41*
%MOMM*%
%LPD*%
G01*
G04 APERTURE LIST*
G04 Aperture macros list*
%AMRoundRect*
0 Rectangle with rounded corners*
0 $1 Rounding radius*
0 $2 $3 $4 $5 $6 $7 $8 $9 X,Y pos of 4 corners*
0 Add a 4 corners polygon primitive as box body*
4,1,4,$2,$3,$4,$5,$6,$7,$8,$9,$2,$3,0*
0 Add four circle primitives for the rounded corners*
1,1,$1+$1,$2,$3*
1,1,$1+$1,$4,$5*
1,1,$1+$1,$6,$7*
1,1,$1+$1,$8,$9*
0 Add four rect primitives between the rounded corners*
20,1,$1+$1,$2,$3,$4,$5,0*
20,1,$1+$1,$4,$5,$6,$7,0*
20,1,$1+$1,$6,$7,$8,$9,0*
20,1,$1+$1,$8,$9,$2,$3,0*%
G04 Aperture macros list end*
%ADD10RoundRect,0.254000X-1.000000X-1.000000X1.000000X-1.000000X1.000000X1.000000X-1.000000X1.000000X0*%
%ADD11C,6.908000*%
%ADD12C,4.208000*%
%ADD13C,2.708000*%
%ADD14C,3.108000*%
%ADD15C,2.008000*%
%ADD16RoundRect,0.297038X-1.806962X1.306962X-1.806962X-1.306962X1.806962X-1.306962X1.806962X1.306962X0*%
%ADD17O,4.208000X3.208000*%
%ADD18RoundRect,0.297038X-1.306962X-1.806962X1.306962X-1.806962X1.306962X1.806962X-1.306962X1.806962X0*%
%ADD19O,3.208000X4.208000*%
%ADD20RoundRect,0.297038X1.806962X-1.306962X1.806962X1.306962X-1.806962X1.306962X-1.806962X-1.306962X0*%
G04 APERTURE END LIST*
D10*
%TO.C,J23*%
X174676190Y-79150000D03*
%TD*%
%TO.C,J26*%
X46500000Y-88400000D03*
%TD*%
%TO.C,J21*%
X167676190Y-79150000D03*
%TD*%
%TO.C,J24*%
X46500000Y-84900000D03*
%TD*%
%TO.C,J22*%
X171176190Y-79150000D03*
%TD*%
%TO.C,J25*%
X169311190Y-103400000D03*
%TD*%
%TO.C,J28*%
X46500000Y-95500000D03*
%TD*%
%TO.C,J27*%
X46500000Y-91900000D03*
%TD*%
D11*
%TO.C,hole7*%
X170406190Y-51270000D03*
%TD*%
D12*
%TO.C,P1*%
X182350000Y-51910000D03*
D13*
X179900000Y-59710000D03*
D12*
X107850000Y-51910000D03*
D13*
X58100000Y-59710000D03*
D12*
X55650000Y-51910000D03*
D14*
X175250000Y-56910000D03*
X169450000Y-56910000D03*
X172350000Y-59240000D03*
X175250000Y-65040000D03*
X169450000Y-65040000D03*
D15*
X115830000Y-65040000D03*
X118370000Y-65040000D03*
X120910000Y-65040000D03*
X123450000Y-65040000D03*
X125990000Y-65040000D03*
X128530000Y-65040000D03*
X131070000Y-65040000D03*
X133610000Y-65040000D03*
X136150000Y-65040000D03*
X138690000Y-65040000D03*
X141230000Y-65040000D03*
X143770000Y-65040000D03*
X146310000Y-65040000D03*
X148850000Y-65040000D03*
X151390000Y-65040000D03*
X153930000Y-65040000D03*
X156470000Y-65040000D03*
X159010000Y-65040000D03*
X161550000Y-65040000D03*
X115830000Y-62500000D03*
X118370000Y-62500000D03*
X120910000Y-62500000D03*
X123450000Y-62500000D03*
X125990000Y-62500000D03*
X128530000Y-62500000D03*
X131070000Y-62500000D03*
X133610000Y-62500000D03*
X136150000Y-62500000D03*
X138690000Y-62500000D03*
X141230000Y-62500000D03*
X143770000Y-62500000D03*
X146310000Y-62500000D03*
X148850000Y-62500000D03*
X151390000Y-62500000D03*
X153930000Y-62500000D03*
X156470000Y-62500000D03*
X159010000Y-62500000D03*
X161550000Y-62500000D03*
X115830000Y-56450000D03*
X118370000Y-56450000D03*
X120910000Y-56450000D03*
X123450000Y-56450000D03*
X125990000Y-56450000D03*
X128530000Y-56450000D03*
X131070000Y-56450000D03*
X133610000Y-56450000D03*
X136150000Y-56450000D03*
X138690000Y-56450000D03*
X141230000Y-56450000D03*
X143770000Y-56450000D03*
X146310000Y-56450000D03*
X148850000Y-56450000D03*
X151390000Y-56450000D03*
X153930000Y-56450000D03*
X156470000Y-56450000D03*
X159010000Y-56450000D03*
X161550000Y-56450000D03*
X115830000Y-53910000D03*
X118370000Y-53910000D03*
X120910000Y-53910000D03*
X123450000Y-53910000D03*
X125990000Y-53910000D03*
X128530000Y-53910000D03*
X131070000Y-53910000D03*
X133610000Y-53910000D03*
X136150000Y-53910000D03*
X138690000Y-53910000D03*
X141230000Y-53910000D03*
X143770000Y-53910000D03*
X146310000Y-53910000D03*
X148850000Y-53910000D03*
X151390000Y-53910000D03*
X153930000Y-53910000D03*
X156470000Y-53910000D03*
X159010000Y-53910000D03*
X161550000Y-53910000D03*
X99860000Y-53910000D03*
X97320000Y-53910000D03*
X94780000Y-53910000D03*
X92240000Y-53910000D03*
X89700000Y-53910000D03*
X87160000Y-53910000D03*
X84620000Y-53910000D03*
X82080000Y-53910000D03*
X99860000Y-56450000D03*
X97320000Y-56450000D03*
X94780000Y-56450000D03*
X92240000Y-56450000D03*
X89700000Y-56450000D03*
X87160000Y-56450000D03*
X84620000Y-56450000D03*
X82080000Y-56450000D03*
X99860000Y-62500000D03*
X97320000Y-62500000D03*
X94780000Y-62500000D03*
X92240000Y-62500000D03*
X89700000Y-62500000D03*
X87160000Y-62500000D03*
X84620000Y-62500000D03*
X82080000Y-62500000D03*
X99860000Y-65040000D03*
X97320000Y-65040000D03*
X94780000Y-65040000D03*
X92240000Y-65040000D03*
X89700000Y-65040000D03*
X87160000Y-65040000D03*
X84620000Y-65040000D03*
X82080000Y-65040000D03*
D14*
X74250000Y-56910000D03*
X68450000Y-56910000D03*
X62550000Y-56910000D03*
X71350000Y-59240000D03*
X65450000Y-59240000D03*
X74250000Y-65040000D03*
X68450000Y-65040000D03*
X62550000Y-65040000D03*
%TD*%
D11*
%TO.C,hole8*%
X77406190Y-51270000D03*
%TD*%
D16*
%TO.C,J2*%
X83181190Y-92970000D03*
D17*
X83181190Y-97170000D03*
X83181190Y-101370000D03*
X83181190Y-105570000D03*
X83181190Y-109770000D03*
X83181190Y-113970000D03*
X83181190Y-118170000D03*
X83181190Y-122370000D03*
X83181190Y-126570000D03*
X88681190Y-92970000D03*
X88681190Y-97170000D03*
X88681190Y-101370000D03*
X88681190Y-105570000D03*
X88681190Y-109770000D03*
X88681190Y-113970000D03*
X88681190Y-118170000D03*
X88681190Y-122370000D03*
X88681190Y-126570000D03*
%TD*%
D11*
%TO.C,hole4*%
X170406190Y-144270000D03*
%TD*%
%TO.C,hole1*%
X54246190Y-77750000D03*
%TD*%
%TO.C,hole6*%
X184246190Y-77750000D03*
%TD*%
%TO.C,hole2*%
X54246190Y-127750000D03*
%TD*%
D18*
%TO.C,J5*%
X84506190Y-138495000D03*
D19*
X88706190Y-138495000D03*
X92906190Y-138495000D03*
X97106190Y-138495000D03*
X101306190Y-138495000D03*
X105506190Y-138495000D03*
X109706190Y-138495000D03*
X113906190Y-138495000D03*
X118106190Y-138495000D03*
X122306190Y-138495000D03*
X84506190Y-132995000D03*
X88706190Y-132995000D03*
X92906190Y-132995000D03*
X97106190Y-132995000D03*
X101306190Y-132995000D03*
X105506190Y-132995000D03*
X109706190Y-132995000D03*
X113906190Y-132995000D03*
X118106190Y-132995000D03*
X122306190Y-132995000D03*
%TD*%
D11*
%TO.C,hole5*%
X184246190Y-127750000D03*
%TD*%
D16*
%TO.C,J11*%
X83181190Y-73570000D03*
D17*
X83181190Y-77770000D03*
X83181190Y-81970000D03*
X83181190Y-86170000D03*
X88681190Y-73570000D03*
X88681190Y-77770000D03*
X88681190Y-81970000D03*
X88681190Y-86170000D03*
%TD*%
D20*
%TO.C,J3*%
X164631190Y-126970000D03*
D17*
X164631190Y-122770000D03*
X164631190Y-118570000D03*
X159131190Y-126970000D03*
X159131190Y-122770000D03*
X159131190Y-118570000D03*
%TD*%
D11*
%TO.C,hole3*%
X77406190Y-144270000D03*
%TD*%
D18*
%TO.C,J4*%
X134206190Y-138495000D03*
D19*
X138406190Y-138495000D03*
X142606190Y-138495000D03*
X146806190Y-138495000D03*
X151006190Y-138495000D03*
X155206190Y-138495000D03*
X159406190Y-138495000D03*
X163606190Y-138495000D03*
X134206190Y-132995000D03*
X138406190Y-132995000D03*
X142606190Y-132995000D03*
X146806190Y-132995000D03*
X151006190Y-132995000D03*
X155206190Y-132995000D03*
X159406190Y-132995000D03*
X163606190Y-132995000D03*
%TD*%
G36*
X197959191Y-59086907D02*
G01*
X197995155Y-59136407D01*
X198000000Y-59167000D01*
X198000000Y-123470904D01*
X197981093Y-123529095D01*
X197931593Y-123565059D01*
X197902919Y-123569885D01*
X197876092Y-123570405D01*
X197823043Y-123579250D01*
X197813325Y-123580380D01*
X197804005Y-123580999D01*
X197804003Y-123580999D01*
X197759671Y-123589772D01*
X197756738Y-123590306D01*
X197631279Y-123611228D01*
X197631267Y-123611231D01*
X197396504Y-123691797D01*
X197396500Y-123691799D01*
X197295752Y-123746307D01*
X197292516Y-123747982D01*
X197250002Y-123768999D01*
X197249994Y-123769003D01*
X197237681Y-123777237D01*
X197229766Y-123782010D01*
X197178197Y-123809912D01*
X197116150Y-123858198D01*
X197110384Y-123862362D01*
X197086999Y-123878000D01*
X197058193Y-123903106D01*
X197053951Y-123906601D01*
X196982320Y-123962347D01*
X196953861Y-123993256D01*
X196946086Y-124000823D01*
X196938995Y-124007004D01*
X196900651Y-124050995D01*
X196898855Y-124053000D01*
X196814201Y-124144948D01*
X196706928Y-124309123D01*
X196706354Y-124309991D01*
X196700717Y-124318422D01*
X196698541Y-124321960D01*
X196678436Y-124352731D01*
X196678431Y-124352740D01*
X196636789Y-124447662D01*
X196634880Y-124451757D01*
X196613999Y-124494000D01*
X196607033Y-124514567D01*
X196603927Y-124522576D01*
X196578722Y-124580033D01*
X196578720Y-124580038D01*
X196561485Y-124648090D01*
X196559284Y-124655540D01*
X196550998Y-124680006D01*
X196542903Y-124720907D01*
X196541757Y-124725990D01*
X196517787Y-124820638D01*
X196517786Y-124820646D01*
X196514373Y-124861829D01*
X196513394Y-124868829D01*
X196513417Y-124868833D01*
X196513000Y-124871997D01*
X196510926Y-124903263D01*
X196510805Y-124904884D01*
X196497288Y-125067999D01*
X196510805Y-125231114D01*
X196510926Y-125232736D01*
X196513000Y-125263997D01*
X196513418Y-125267174D01*
X196513394Y-125267177D01*
X196514374Y-125274176D01*
X196517786Y-125315352D01*
X196517787Y-125315361D01*
X196541758Y-125410012D01*
X196542904Y-125415096D01*
X196550998Y-125455994D01*
X196550999Y-125455998D01*
X196559284Y-125480460D01*
X196561486Y-125487912D01*
X196578722Y-125555970D01*
X196603930Y-125613431D01*
X196607038Y-125621444D01*
X196613998Y-125641994D01*
X196614003Y-125642008D01*
X196634883Y-125684247D01*
X196636794Y-125688345D01*
X196678437Y-125783272D01*
X196698530Y-125814023D01*
X196700716Y-125817576D01*
X196706364Y-125826022D01*
X196706944Y-125826899D01*
X196814201Y-125991051D01*
X196898851Y-126082993D01*
X196900649Y-126085000D01*
X196938995Y-126128994D01*
X196939006Y-126129005D01*
X196946078Y-126135169D01*
X196953862Y-126142744D01*
X196982316Y-126173649D01*
X196982329Y-126173661D01*
X197053952Y-126229399D01*
X197058198Y-126232897D01*
X197086989Y-126257990D01*
X197087004Y-126258002D01*
X197110389Y-126273640D01*
X197116160Y-126277807D01*
X197178202Y-126326090D01*
X197229750Y-126353979D01*
X197237670Y-126358755D01*
X197250002Y-126367001D01*
X197292524Y-126388020D01*
X197295765Y-126389697D01*
X197396502Y-126444201D01*
X197396503Y-126444202D01*
X197631263Y-126524768D01*
X197631267Y-126524769D01*
X197756749Y-126545693D01*
X197759688Y-126546229D01*
X197804000Y-126554999D01*
X197813303Y-126555616D01*
X197823044Y-126556748D01*
X197876090Y-126565594D01*
X197876100Y-126565595D01*
X197902916Y-126566114D01*
X197960730Y-126586143D01*
X197995729Y-126636330D01*
X198000000Y-126665095D01*
X198000000Y-126817216D01*
X197980948Y-150548832D01*
X197980920Y-150551127D01*
X197978689Y-150644142D01*
X197976757Y-150661370D01*
X197939716Y-150844743D01*
X197933913Y-150863570D01*
X197861760Y-151034874D01*
X197852345Y-151052178D01*
X197747703Y-151205804D01*
X197735047Y-151220902D01*
X197602051Y-151350773D01*
X197586658Y-151363065D01*
X197430591Y-151464025D01*
X197413067Y-151473027D01*
X197238977Y-151541527D01*
X197222356Y-151546437D01*
X197174906Y-151556035D01*
X197155278Y-151558000D01*
X197138006Y-151558000D01*
X196842547Y-151567411D01*
X196840228Y-151567457D01*
X196835128Y-151567499D01*
X196835082Y-151567501D01*
X196832317Y-151567682D01*
X196829025Y-151567842D01*
X196572999Y-151576000D01*
X196396717Y-151592566D01*
X196387455Y-151593000D01*
X195223001Y-151593000D01*
X195223000Y-151593001D01*
X195223000Y-151689432D01*
X195204093Y-151747623D01*
X195154593Y-151783587D01*
X195145531Y-151786062D01*
X195137457Y-151787861D01*
X195135287Y-151788319D01*
X195083044Y-151798736D01*
X195057785Y-151805520D01*
X195053645Y-151806536D01*
X194898997Y-151841000D01*
X194898992Y-151841001D01*
X194571398Y-151936148D01*
X194569470Y-151936687D01*
X194513318Y-151951771D01*
X194490432Y-151959558D01*
X194486157Y-151960905D01*
X194354990Y-151999003D01*
X194033007Y-152115207D01*
X194031295Y-152115808D01*
X193954825Y-152141831D01*
X193954822Y-152141832D01*
X193927718Y-152153088D01*
X193923359Y-152154779D01*
X193823003Y-152190998D01*
X193481767Y-152338274D01*
X193480508Y-152338807D01*
X193410020Y-152368080D01*
X193410019Y-152368081D01*
X193393849Y-152376076D01*
X193389204Y-152378225D01*
X193304002Y-152414999D01*
X193303996Y-152415002D01*
X192948392Y-152596330D01*
X192947303Y-152596877D01*
X192881202Y-152629563D01*
X192868549Y-152636888D01*
X192863924Y-152639403D01*
X192800013Y-152671992D01*
X192799981Y-152672009D01*
X192431721Y-152889789D01*
X192430933Y-152890251D01*
X192370672Y-152925141D01*
X192363419Y-152930001D01*
X192358711Y-152932966D01*
X192313016Y-152959989D01*
X192312993Y-152960004D01*
X191983243Y-153184769D01*
X191982598Y-153185205D01*
X191880618Y-153253547D01*
X191880582Y-153253572D01*
X191869525Y-153262082D01*
X191864915Y-153265423D01*
X191845019Y-153278986D01*
X191521727Y-153529789D01*
X191521430Y-153530018D01*
X191413134Y-153613377D01*
X191409116Y-153616913D01*
X191404407Y-153620805D01*
X191398998Y-153625001D01*
X191066759Y-153918154D01*
X191066657Y-153918244D01*
X190970234Y-154003087D01*
X190553844Y-154420978D01*
X190282987Y-154731048D01*
X190282673Y-154731406D01*
X190200994Y-154824006D01*
X190196595Y-154829686D01*
X190192891Y-154834188D01*
X190165753Y-154865255D01*
X189927398Y-155177234D01*
X189926998Y-155177753D01*
X189854002Y-155271996D01*
X189853995Y-155272005D01*
X189847513Y-155281544D01*
X189844303Y-155285996D01*
X189807601Y-155334035D01*
X189613823Y-155625457D01*
X189613271Y-155626279D01*
X189536001Y-155739998D01*
X189535987Y-155740020D01*
X189524415Y-155759655D01*
X189521567Y-155764201D01*
X189480957Y-155825275D01*
X189299889Y-156140632D01*
X189299327Y-156141599D01*
X189249003Y-156226995D01*
X189248992Y-156227015D01*
X189239784Y-156245071D01*
X189237446Y-156249387D01*
X189187223Y-156336858D01*
X189187214Y-156336875D01*
X189046001Y-156625068D01*
X189045296Y-156626478D01*
X188992008Y-156730983D01*
X188991997Y-156731006D01*
X188977449Y-156764711D01*
X188975457Y-156769037D01*
X188927643Y-156866618D01*
X188811385Y-157149436D01*
X188810716Y-157151025D01*
X188768000Y-157249998D01*
X188754637Y-157287217D01*
X188753027Y-157291400D01*
X188703359Y-157412229D01*
X188609001Y-157692802D01*
X188608342Y-157694695D01*
X188577003Y-157781989D01*
X188564870Y-157823761D01*
X188563635Y-157827702D01*
X188515310Y-157971402D01*
X188446751Y-158230347D01*
X188446121Y-158232620D01*
X188418996Y-158326015D01*
X188406523Y-158381989D01*
X188405596Y-158385793D01*
X188364326Y-158541677D01*
X188316920Y-158783960D01*
X188316392Y-158786481D01*
X188296003Y-158877980D01*
X188295999Y-158878003D01*
X188285909Y-158942099D01*
X188285271Y-158945713D01*
X188251050Y-159120613D01*
X188251050Y-159120615D01*
X188221435Y-159351390D01*
X188221036Y-159354182D01*
X188208000Y-159437000D01*
X188207997Y-159437025D01*
X188201407Y-159507023D01*
X188201038Y-159510343D01*
X188175964Y-159705750D01*
X188161770Y-159907933D01*
X188138834Y-159964657D01*
X188086937Y-159997066D01*
X188063013Y-160000000D01*
X49932986Y-160000000D01*
X49874795Y-159981093D01*
X49838831Y-159931593D01*
X49834229Y-159907933D01*
X49823243Y-159751433D01*
X49823000Y-159744500D01*
X49823000Y-158512801D01*
X49822999Y-158512800D01*
X49700378Y-158512800D01*
X49642187Y-158493893D01*
X49606223Y-158444393D01*
X49604676Y-158439139D01*
X49589570Y-158382086D01*
X49588639Y-158378266D01*
X49577000Y-158326000D01*
X49576999Y-158325997D01*
X49551556Y-158238399D01*
X49550924Y-158236123D01*
X49480367Y-157969632D01*
X49430634Y-157821748D01*
X49429399Y-157817803D01*
X49419007Y-157782022D01*
X49419003Y-157782011D01*
X49391940Y-157706631D01*
X49391281Y-157704735D01*
X49292156Y-157409988D01*
X49239963Y-157283021D01*
X49238351Y-157278832D01*
X49227998Y-157249997D01*
X49194455Y-157172279D01*
X49193785Y-157170688D01*
X49067675Y-156863908D01*
X49067671Y-156863901D01*
X49015760Y-156757960D01*
X49013765Y-156753626D01*
X49004004Y-156731010D01*
X48967220Y-156658874D01*
X48966514Y-156657462D01*
X48807857Y-156333679D01*
X48807857Y-156333678D01*
X48751356Y-156235275D01*
X48749011Y-156230945D01*
X48746999Y-156226998D01*
X48746992Y-156226987D01*
X48731876Y-156201336D01*
X48731313Y-156200368D01*
X48513851Y-155821637D01*
X48464872Y-155747980D01*
X48462022Y-155743431D01*
X48460001Y-155740002D01*
X48459997Y-155739996D01*
X48439943Y-155710482D01*
X48439391Y-155709661D01*
X48186922Y-155329986D01*
X48186908Y-155329966D01*
X47828454Y-154860804D01*
X47440009Y-154416140D01*
X47439995Y-154416126D01*
X47023241Y-153997886D01*
X46579969Y-153607868D01*
X46112062Y-153247729D01*
X45701747Y-152972774D01*
X45701102Y-152972338D01*
X45682996Y-152959997D01*
X45682711Y-152959829D01*
X45677994Y-152956857D01*
X45621578Y-152919052D01*
X45250493Y-152704221D01*
X45249700Y-152703757D01*
X45196006Y-152672003D01*
X45195996Y-152671998D01*
X45188578Y-152668215D01*
X45183955Y-152665700D01*
X45110600Y-152623233D01*
X45110558Y-152623210D01*
X44774165Y-152456888D01*
X44773071Y-152456339D01*
X44691995Y-152414998D01*
X44674225Y-152407328D01*
X44669579Y-152405178D01*
X44581311Y-152361536D01*
X44581300Y-152361531D01*
X44233902Y-152217274D01*
X44232639Y-152216739D01*
X44173007Y-152191002D01*
X44157068Y-152185250D01*
X44152711Y-152183560D01*
X44036000Y-152135096D01*
X43723728Y-152028839D01*
X43722012Y-152028237D01*
X43641001Y-151999000D01*
X43640997Y-151998999D01*
X43609256Y-151989779D01*
X43604980Y-151988432D01*
X43477051Y-151944902D01*
X43181587Y-151865546D01*
X43179654Y-151865006D01*
X43096995Y-151840999D01*
X43058974Y-151832521D01*
X43054843Y-151831506D01*
X43005090Y-151818144D01*
X42953795Y-151784790D01*
X42941578Y-151752911D01*
X42931700Y-151743000D01*
X42672061Y-151743000D01*
X42652704Y-151741089D01*
X42615015Y-151733575D01*
X42612841Y-151733116D01*
X42545022Y-151718004D01*
X42544986Y-151717997D01*
X42506326Y-151711831D01*
X42502565Y-151711156D01*
X42327783Y-151676311D01*
X42327742Y-151676304D01*
X42073471Y-151642755D01*
X42070828Y-151642370D01*
X41987027Y-151629003D01*
X41987014Y-151629002D01*
X41927039Y-151623365D01*
X41923353Y-151622948D01*
X41742401Y-151599072D01*
X41742385Y-151599071D01*
X41498438Y-151583049D01*
X41495664Y-151582828D01*
X41423001Y-151576000D01*
X41362716Y-151574078D01*
X41359383Y-151573915D01*
X41153242Y-151560376D01*
X40867490Y-151558076D01*
X40848695Y-151556121D01*
X40765710Y-151539367D01*
X40749049Y-151534448D01*
X40574982Y-151465948D01*
X40557460Y-151456947D01*
X40401386Y-151355976D01*
X40385993Y-151343683D01*
X40253004Y-151213812D01*
X40240348Y-151198714D01*
X40135708Y-151045082D01*
X40126294Y-151027778D01*
X40054141Y-150856465D01*
X40048339Y-150837639D01*
X40011299Y-150654259D01*
X40009368Y-150637036D01*
X40007135Y-150544087D01*
X40007106Y-150541738D01*
X40000028Y-126665005D01*
X40018918Y-126606809D01*
X40068407Y-126570830D01*
X40096986Y-126565997D01*
X40124072Y-126565438D01*
X40124080Y-126565437D01*
X40175612Y-126556838D01*
X40185360Y-126555705D01*
X40196000Y-126554999D01*
X40244888Y-126545323D01*
X40247817Y-126544789D01*
X40368861Y-126524591D01*
X40603580Y-126444012D01*
X40603582Y-126444011D01*
X40700876Y-126391357D01*
X40704128Y-126389674D01*
X40749996Y-126367001D01*
X40750006Y-126366995D01*
X40763613Y-126357896D01*
X40771532Y-126353119D01*
X40821827Y-126325902D01*
X40821833Y-126325898D01*
X40882266Y-126278859D01*
X40888048Y-126274683D01*
X40912998Y-126258000D01*
X40913001Y-126257997D01*
X40943735Y-126231209D01*
X40947980Y-126227711D01*
X41017662Y-126173477D01*
X41017668Y-126173470D01*
X41045200Y-126143562D01*
X41052998Y-126135973D01*
X41060994Y-126129004D01*
X41061003Y-126128995D01*
X41102744Y-126081106D01*
X41104539Y-126079102D01*
X41185739Y-125990897D01*
X41285650Y-125837971D01*
X41286239Y-125837081D01*
X41298996Y-125818006D01*
X41299954Y-125816349D01*
X41302793Y-125811732D01*
X41321473Y-125783139D01*
X41361853Y-125691081D01*
X41363767Y-125686975D01*
X41385995Y-125642008D01*
X41386002Y-125641993D01*
X41393490Y-125619884D01*
X41396597Y-125611871D01*
X41421158Y-125555878D01*
X41437944Y-125489591D01*
X41440149Y-125482129D01*
X41449000Y-125455998D01*
X41457610Y-125412490D01*
X41458757Y-125407403D01*
X41482075Y-125315322D01*
X41482077Y-125315312D01*
X41485384Y-125275400D01*
X41486935Y-125264325D01*
X41486999Y-125263997D01*
X41489633Y-125224278D01*
X41489754Y-125222649D01*
X41502570Y-125067999D01*
X41489754Y-124913349D01*
X41489633Y-124911721D01*
X41486999Y-124872003D01*
X41486933Y-124871666D01*
X41485384Y-124860601D01*
X41482077Y-124820687D01*
X41482077Y-124820686D01*
X41458757Y-124728597D01*
X41457611Y-124723513D01*
X41449000Y-124680003D01*
X41440149Y-124653871D01*
X41437945Y-124646413D01*
X41421155Y-124580115D01*
X41421154Y-124580111D01*
X41396596Y-124524125D01*
X41393488Y-124516112D01*
X41385999Y-124493999D01*
X41385998Y-124493998D01*
X41363774Y-124449038D01*
X41361861Y-124444935D01*
X41321471Y-124352855D01*
X41321468Y-124352850D01*
X41302795Y-124324269D01*
X41299969Y-124319676D01*
X41299002Y-124318005D01*
X41286208Y-124298872D01*
X41285623Y-124297987D01*
X41185739Y-124145103D01*
X41104518Y-124056873D01*
X41102724Y-124054870D01*
X41061001Y-124007000D01*
X41052987Y-124000015D01*
X41045201Y-123992437D01*
X41017671Y-123962531D01*
X41017659Y-123962520D01*
X40947974Y-123908282D01*
X40943731Y-123904786D01*
X40913004Y-123878003D01*
X40888051Y-123861317D01*
X40882275Y-123857146D01*
X40821831Y-123810100D01*
X40821823Y-123810095D01*
X40771524Y-123782874D01*
X40763615Y-123778104D01*
X40750005Y-123769004D01*
X40749997Y-123768999D01*
X40704103Y-123746312D01*
X40700855Y-123744631D01*
X40603576Y-123691986D01*
X40368855Y-123611407D01*
X40247798Y-123591206D01*
X40244873Y-123590672D01*
X40196008Y-123581001D01*
X40195992Y-123580998D01*
X40185338Y-123580291D01*
X40175609Y-123579159D01*
X40124089Y-123570562D01*
X40124079Y-123570561D01*
X40096953Y-123570001D01*
X40039166Y-123549894D01*
X40004233Y-123499662D01*
X40000000Y-123471022D01*
X40000000Y-59300852D01*
X40018907Y-59242661D01*
X40068407Y-59206697D01*
X40099551Y-59201854D01*
X42899950Y-59217451D01*
X42958035Y-59236682D01*
X42993723Y-59286381D01*
X42998399Y-59316449D01*
X42998000Y-146095100D01*
X43826846Y-146237224D01*
X43833513Y-146238605D01*
X44752528Y-146462150D01*
X44757840Y-146463600D01*
X45576741Y-146711752D01*
X45583569Y-146714096D01*
X46228013Y-146961959D01*
X46232345Y-146963744D01*
X46853589Y-147237091D01*
X46856758Y-147238552D01*
X47577409Y-147586452D01*
X47582905Y-147589321D01*
X48376048Y-148035464D01*
X48384119Y-148040531D01*
X49203342Y-148611505D01*
X49206970Y-148614157D01*
X49951675Y-149185097D01*
X49958469Y-149190807D01*
X50578675Y-149761397D01*
X50581650Y-149764250D01*
X51277030Y-150459630D01*
X51283080Y-150466256D01*
X51902957Y-151210109D01*
X51907245Y-151215641D01*
X52354160Y-151836356D01*
X52356191Y-151839287D01*
X52803421Y-152510132D01*
X52806800Y-152515574D01*
X53179057Y-153160819D01*
X53181239Y-153164809D01*
X53553469Y-153884454D01*
X53556673Y-153891273D01*
X53904378Y-154710863D01*
X53905937Y-154714766D01*
X54278325Y-155707801D01*
X54281526Y-155717973D01*
X54529260Y-156684135D01*
X54530856Y-156691519D01*
X54679837Y-157535747D01*
X54680475Y-157539868D01*
X54780062Y-158286765D01*
X54780323Y-158288906D01*
X54791899Y-158393000D01*
X182815099Y-158393000D01*
X182947425Y-157621350D01*
X182948806Y-157614684D01*
X183172350Y-156695671D01*
X183173800Y-156690359D01*
X183421952Y-155871458D01*
X183424296Y-155864630D01*
X183672159Y-155220186D01*
X183673944Y-155215854D01*
X183947291Y-154594610D01*
X183948752Y-154591441D01*
X184296652Y-153870790D01*
X184299521Y-153865294D01*
X184745664Y-153072151D01*
X184750731Y-153064080D01*
X185321705Y-152244857D01*
X185324357Y-152241229D01*
X185895297Y-151496524D01*
X185901007Y-151489730D01*
X186471597Y-150869525D01*
X186474450Y-150866550D01*
X187169830Y-150171170D01*
X187176456Y-150165120D01*
X187920309Y-149545242D01*
X187925841Y-149540954D01*
X188546556Y-149094039D01*
X188549487Y-149092008D01*
X189220332Y-148644778D01*
X189225774Y-148641399D01*
X189871019Y-148269142D01*
X189875009Y-148266960D01*
X190594654Y-147894730D01*
X190601473Y-147891526D01*
X191421063Y-147543821D01*
X191424966Y-147542262D01*
X192418001Y-147169874D01*
X192428173Y-147166673D01*
X193394335Y-146918939D01*
X193401719Y-146917343D01*
X194245947Y-146768362D01*
X194250068Y-146767724D01*
X194995276Y-146668363D01*
X194999257Y-146667945D01*
X194999299Y-146667899D01*
X195023000Y-60242987D01*
X195023000Y-59167000D01*
X195041907Y-59108809D01*
X195091407Y-59072845D01*
X195122000Y-59068000D01*
X197901000Y-59068000D01*
X197959191Y-59086907D01*
G37*
M02*
