%TF.GenerationSoftware,KiCad,Pcbnew,10.0.2*%
%TF.CreationDate,2026-08-25T17:05:41+03:00*%
%TF.ProjectId,368255-2,33363832-3535-42d3-922e-6b696361645f,R0.2*%
%TF.SameCoordinates,Original*%
%TF.FileFunction,Copper,L2,Bot*%
%TF.FilePolarity,Positive*%
%FSLAX46Y46*%
G04 Gerber Fmt 4.6, Leading zero omitted, Abs format (unit mm)*
G04 Created by KiCad (PCBNEW 10.0.2) date 2026-08-25 17:05:41*
%MOMM*%
%LPD*%
G01*
G04 APERTURE LIST*
G04 Aperture macros list*
%AMRoundRect*
0 Rectangle with rounded corners*
0 $1 Rounding radius*
0 $2 $3 $4 $5 $6 $7 $8 $9 X,Y pos of 4 corners*
0 Add a 4 corners polygon primitive as box body*
4,1,4,$2,$3,$4,$5,$6,$7,$8,$9,$2,$3,0*
0 Add four circle primitives for the rounded corners*
1,1,$1+$1,$2,$3*
1,1,$1+$1,$4,$5*
1,1,$1+$1,$6,$7*
1,1,$1+$1,$8,$9*
0 Add four rect primitives between the rounded corners*
20,1,$1+$1,$2,$3,$4,$5,0*
20,1,$1+$1,$4,$5,$6,$7,0*
20,1,$1+$1,$6,$7,$8,$9,0*
20,1,$1+$1,$8,$9,$2,$3,0*%
G04 Aperture macros list end*
%TA.AperFunction,ComponentPad*%
%ADD10R,2.000000X2.000000*%
%TD*%
%TA.AperFunction,ComponentPad*%
%ADD11C,6.400000*%
%TD*%
%TA.AperFunction,ComponentPad*%
%ADD12C,3.700000*%
%TD*%
%TA.AperFunction,ComponentPad*%
%ADD13C,2.200000*%
%TD*%
%TA.AperFunction,ComponentPad*%
%ADD14C,2.600000*%
%TD*%
%TA.AperFunction,ComponentPad*%
%ADD15C,1.500000*%
%TD*%
%TA.AperFunction,ComponentPad*%
%ADD16RoundRect,0.250001X-1.599999X1.099999X-1.599999X-1.099999X1.599999X-1.099999X1.599999X1.099999X0*%
%TD*%
%TA.AperFunction,ComponentPad*%
%ADD17O,3.700000X2.700000*%
%TD*%
%TA.AperFunction,ComponentPad*%
%ADD18RoundRect,0.250001X-1.099999X-1.599999X1.099999X-1.599999X1.099999X1.599999X-1.099999X1.599999X0*%
%TD*%
%TA.AperFunction,ComponentPad*%
%ADD19O,2.700000X3.700000*%
%TD*%
%TA.AperFunction,ComponentPad*%
%ADD20RoundRect,0.250001X1.599999X-1.099999X1.599999X1.099999X-1.599999X1.099999X-1.599999X-1.099999X0*%
%TD*%
G04 APERTURE END LIST*
D10*
%TO.P,J23,1,Pin_1_1*%
%TO.N,/BRAKE_PEDAL_SENSOR_2*%
X174676190Y-79150000D03*
%TD*%
%TO.P,J26,1,Pin_1_1*%
%TO.N,/USB_D+*%
X46500000Y-88400000D03*
%TD*%
%TO.P,J21,1,Pin_1_1*%
%TO.N,/CLUTCH_SENSOR*%
X167676190Y-79150000D03*
%TD*%
%TO.P,J24,1,Pin_1_1*%
%TO.N,+5VUSB*%
X46500000Y-84900000D03*
%TD*%
%TO.P,J22,1,Pin_1_1*%
%TO.N,/BRAKE_PEDAL_SENSOR*%
X171176190Y-79150000D03*
%TD*%
%TO.P,J25,1,Pin_1_1*%
%TO.N,Net-(J25-Pin_1)*%
X169311190Y-103400000D03*
%TD*%
%TO.P,J28,1,Pin_1_1*%
%TO.N,GND*%
X46500000Y-95500000D03*
%TD*%
%TO.P,J27,1,Pin_1_1*%
%TO.N,/USB_D-*%
X46500000Y-91900000D03*
%TD*%
D11*
%TO.P,hole7,1*%
%TO.N,N/C*%
X170406190Y-51270000D03*
%TD*%
D12*
%TO.P,P1,*%
%TO.N,*%
X182350000Y-51910000D03*
D13*
X179900000Y-59710000D03*
D12*
X107850000Y-51910000D03*
D13*
X58100000Y-59710000D03*
D12*
X55650000Y-51910000D03*
D14*
%TO.P,P1,1,1_1*%
%TO.N,/OUT_IGN2*%
X175250000Y-56910000D03*
%TO.P,P1,2,2_2*%
%TO.N,/OUT_IGN3*%
X169450000Y-56910000D03*
%TO.P,P1,3,3_3*%
%TO.N,GND*%
X172350000Y-59240000D03*
%TO.P,P1,4,4_4*%
%TO.N,/OUT_IGN4*%
X175250000Y-65040000D03*
%TO.P,P1,5,5_5*%
%TO.N,/OUT_IGN1*%
X169450000Y-65040000D03*
D15*
%TO.P,P1,6,6_6*%
%TO.N,/OUT_INJ2*%
X115830000Y-65040000D03*
%TO.P,P1,7,7_7*%
%TO.N,/OUT_INJ3*%
X118370000Y-65040000D03*
%TO.P,P1,8,8_8*%
%TO.N,unconnected-(P1-Pad8)*%
X120910000Y-65040000D03*
%TO.P,P1,9,9_9*%
%TO.N,unconnected-(P1-Pad9)*%
X123450000Y-65040000D03*
%TO.P,P1,10,10_10*%
%TO.N,unconnected-(P1-Pad10)*%
X125990000Y-65040000D03*
%TO.P,P1,11,11_11*%
%TO.N,unconnected-(P1-Pad11)*%
X128530000Y-65040000D03*
%TO.P,P1,12,12_12*%
%TO.N,unconnected-(P1-Pad12)*%
X131070000Y-65040000D03*
%TO.P,P1,13,13_13*%
%TO.N,/12V_KEY_VIGN*%
X133610000Y-65040000D03*
%TO.P,P1,14,14_14*%
%TO.N,/OUT_LS_HOT1*%
X136150000Y-65040000D03*
%TO.P,P1,15,15_15*%
%TO.N,/VR_DISCRETE+*%
X138690000Y-65040000D03*
%TO.P,P1,16,16_16*%
%TO.N,/IN_PPS1*%
X141230000Y-65040000D03*
%TO.P,P1,17,17_17*%
%TO.N,GNDA*%
X143770000Y-65040000D03*
%TO.P,P1,18,18_18*%
%TO.N,unconnected-(P1-Pad18)*%
X146310000Y-65040000D03*
%TO.P,P1,19,19_19*%
%TO.N,/IN_KNOCK_RAW*%
X148850000Y-65040000D03*
%TO.P,P1,20,20_20*%
%TO.N,GNDA*%
X151390000Y-65040000D03*
%TO.P,P1,21,21_21*%
%TO.N,/BRAKE_PEDAL_SENSOR*%
X153930000Y-65040000D03*
%TO.P,P1,22,22_22*%
%TO.N,unconnected-(P1-Pad22)*%
X156470000Y-65040000D03*
%TO.P,P1,23,23_23*%
%TO.N,unconnected-(P1-Pad23)*%
X159010000Y-65040000D03*
%TO.P,P1,24,24_24*%
%TO.N,unconnected-(P1-Pad24)*%
X161550000Y-65040000D03*
%TO.P,P1,25,25_25*%
%TO.N,unconnected-(P1-Pad25)*%
X115830000Y-62500000D03*
%TO.P,P1,26,26_26*%
%TO.N,unconnected-(P1-Pad26)*%
X118370000Y-62500000D03*
%TO.P,P1,27,27_27*%
%TO.N,/OUT_INJ1*%
X120910000Y-62500000D03*
%TO.P,P1,28,28_28*%
%TO.N,unconnected-(P1-Pad28)*%
X123450000Y-62500000D03*
%TO.P,P1,29,29_29*%
%TO.N,unconnected-(P1-Pad29)*%
X125990000Y-62500000D03*
%TO.P,P1,30,30_30*%
%TO.N,unconnected-(P1-Pad30)*%
X128530000Y-62500000D03*
%TO.P,P1,31,31_31*%
%TO.N,unconnected-(P1-Pad31)*%
X131070000Y-62500000D03*
%TO.P,P1,32,32_32*%
%TO.N,+5VP*%
X133610000Y-62500000D03*
%TO.P,P1,33,33_33*%
X136150000Y-62500000D03*
%TO.P,P1,34,34_34*%
%TO.N,/VR_DISCRETE-*%
X138690000Y-62500000D03*
%TO.P,P1,35,35_35*%
%TO.N,GNDA*%
X141230000Y-62500000D03*
%TO.P,P1,36,36_36*%
X143770000Y-62500000D03*
%TO.P,P1,37,37_37*%
%TO.N,/IN_MAP*%
X146310000Y-62500000D03*
%TO.P,P1,38,38_38*%
%TO.N,/IN_TPS2*%
X148850000Y-62500000D03*
%TO.P,P1,39,39_39*%
%TO.N,/IN_CLT*%
X151390000Y-62500000D03*
%TO.P,P1,40,40_40*%
%TO.N,/IN_PPS2*%
X153930000Y-62500000D03*
%TO.P,P1,41,41_41*%
%TO.N,unconnected-(P1-Pad41)*%
X156470000Y-62500000D03*
%TO.P,P1,42,42_42*%
%TO.N,/IN_IAT*%
X159010000Y-62500000D03*
%TO.P,P1,43,43_43*%
%TO.N,unconnected-(P1-Pad43)*%
X161550000Y-62500000D03*
%TO.P,P1,44,44_44*%
%TO.N,+12V*%
X115830000Y-56450000D03*
%TO.P,P1,45,45_45*%
X118370000Y-56450000D03*
%TO.P,P1,46,46_46*%
%TO.N,/OUT_LS1*%
X120910000Y-56450000D03*
%TO.P,P1,47,47_47*%
%TO.N,/OUT_INJ4*%
X123450000Y-56450000D03*
%TO.P,P1,48,48_48*%
%TO.N,unconnected-(P1-Pad48)*%
X125990000Y-56450000D03*
%TO.P,P1,49,49_49*%
%TO.N,unconnected-(P1-Pad49)*%
X128530000Y-56450000D03*
%TO.P,P1,50,50_50*%
%TO.N,/OUT_LS_HOT2*%
X131070000Y-56450000D03*
%TO.P,P1,51,51_51*%
%TO.N,GND*%
X133610000Y-56450000D03*
%TO.P,P1,52,52_52*%
%TO.N,unconnected-(P1-Pad52)*%
X136150000Y-56450000D03*
%TO.P,P1,53,53_53*%
%TO.N,GND*%
X138690000Y-56450000D03*
%TO.P,P1,54,54_54*%
%TO.N,/IN_TPS1*%
X141230000Y-56450000D03*
%TO.P,P1,55,55_55*%
%TO.N,unconnected-(P1-Pad55)*%
X143770000Y-56450000D03*
%TO.P,P1,56,56_56*%
%TO.N,unconnected-(P1-Pad56)*%
X146310000Y-56450000D03*
%TO.P,P1,57,57_57*%
%TO.N,/BUTTON3*%
X148850000Y-56450000D03*
%TO.P,P1,58,58_58*%
%TO.N,/BRAKE_PEDAL_SENSOR_2*%
X151390000Y-56450000D03*
%TO.P,P1,59,59_59*%
%TO.N,/IN_HALL1_SPEED_SENSOR*%
X153930000Y-56450000D03*
%TO.P,P1,60,60_60*%
%TO.N,/BUTTON1*%
X156470000Y-56450000D03*
%TO.P,P1,61,61_61*%
%TO.N,GND*%
X159010000Y-56450000D03*
%TO.P,P1,62,62_62*%
%TO.N,/CAN+*%
X161550000Y-56450000D03*
%TO.P,P1,63,63_63*%
%TO.N,+12V*%
X115830000Y-53910000D03*
%TO.P,P1,64,64_64*%
%TO.N,/OUT_DC1-*%
X118370000Y-53910000D03*
%TO.P,P1,65,65_65*%
X120910000Y-53910000D03*
%TO.P,P1,66,66_66*%
%TO.N,/OUT_DC1+*%
X123450000Y-53910000D03*
%TO.P,P1,67,67_67*%
X125990000Y-53910000D03*
%TO.P,P1,68,68_68*%
%TO.N,/OUT_INJ5*%
X128530000Y-53910000D03*
%TO.P,P1,69,69_69*%
%TO.N,/OUT_INJ6*%
X131070000Y-53910000D03*
%TO.P,P1,70,70_70*%
%TO.N,/OUT_LS4*%
X133610000Y-53910000D03*
%TO.P,P1,71,71_71*%
%TO.N,unconnected-(P1-Pad71)*%
X136150000Y-53910000D03*
%TO.P,P1,72,72_72*%
%TO.N,unconnected-(P1-Pad72)*%
X138690000Y-53910000D03*
%TO.P,P1,73,73_73*%
%TO.N,GNDA*%
X141230000Y-53910000D03*
%TO.P,P1,74,74_74*%
%TO.N,/CLUTCH_SENSOR*%
X143770000Y-53910000D03*
%TO.P,P1,75,75_75*%
%TO.N,/CONTITIONER_ON*%
X146310000Y-53910000D03*
%TO.P,P1,76,76_76*%
%TO.N,unconnected-(P1-Pad76)*%
X148850000Y-53910000D03*
%TO.P,P1,77,77_77*%
%TO.N,unconnected-(P1-Pad77)*%
X151390000Y-53910000D03*
%TO.P,P1,78,78_78*%
%TO.N,GNDA*%
X153930000Y-53910000D03*
%TO.P,P1,79,79_79*%
%TO.N,/IN_HALL2*%
X156470000Y-53910000D03*
%TO.P,P1,80,80_80*%
%TO.N,GND*%
X159010000Y-53910000D03*
%TO.P,P1,81,81_81*%
%TO.N,/CAN-*%
X161550000Y-53910000D03*
%TO.P,P1,82,82_82*%
%TO.N,GNDA*%
X99860000Y-53910000D03*
%TO.P,P1,83,83_83*%
X97320000Y-53910000D03*
%TO.P,P1,84,84_84*%
%TO.N,GND*%
X94780000Y-53910000D03*
%TO.P,P1,85,85_85*%
%TO.N,GNDA*%
X92240000Y-53910000D03*
%TO.P,P1,86,86_86*%
X89700000Y-53910000D03*
%TO.P,P1,87,87_87*%
X87160000Y-53910000D03*
%TO.P,P1,88,88_88*%
X84620000Y-53910000D03*
%TO.P,P1,89,89_89*%
X82080000Y-53910000D03*
%TO.P,P1,90,90_90*%
%TO.N,+5VP*%
X99860000Y-56450000D03*
%TO.P,P1,91,91_91*%
X97320000Y-56450000D03*
%TO.P,P1,92,92_92*%
%TO.N,+5VUSB*%
X94780000Y-56450000D03*
%TO.P,P1,93,93_93*%
%TO.N,+5VP*%
X92240000Y-56450000D03*
%TO.P,P1,94,94_94*%
X89700000Y-56450000D03*
%TO.P,P1,95,95_95*%
X87160000Y-56450000D03*
%TO.P,P1,96,96_96*%
X84620000Y-56450000D03*
%TO.P,P1,97,97_97*%
X82080000Y-56450000D03*
%TO.P,P1,98,98_98*%
%TO.N,/OUT_LS3*%
X99860000Y-62500000D03*
%TO.P,P1,99,99_99*%
%TO.N,/OUT_LS2*%
X97320000Y-62500000D03*
%TO.P,P1,100,100_100*%
%TO.N,/USB_D+*%
X94780000Y-62500000D03*
%TO.P,P1,101,101_101*%
%TO.N,/IN_HALL3*%
X92240000Y-62500000D03*
%TO.P,P1,102,102_102*%
%TO.N,/IN_AUX3_FUEL_PRESSURE_SENSOR*%
X89700000Y-62500000D03*
%TO.P,P1,103,103_103*%
%TO.N,/IN_AUX1_EWG_POS_SENSOR*%
X87160000Y-62500000D03*
%TO.P,P1,104,104_104*%
%TO.N,/IN_FLEX*%
X84620000Y-62500000D03*
%TO.P,P1,105,105_105*%
%TO.N,/IN_AUX2_WBO_ANALOG*%
X82080000Y-62500000D03*
%TO.P,P1,106,106_106*%
%TO.N,/VR_MAX9924+*%
X99860000Y-65040000D03*
%TO.P,P1,107,107_107*%
%TO.N,/VR_MAX9924-*%
X97320000Y-65040000D03*
%TO.P,P1,108,108_108*%
%TO.N,/USB_D-*%
X94780000Y-65040000D03*
%TO.P,P1,109,109_109*%
%TO.N,/2_WBO_Vm*%
X92240000Y-65040000D03*
%TO.P,P1,110,110_110*%
%TO.N,/1_WBO_Ip*%
X89700000Y-65040000D03*
%TO.P,P1,111,111_111*%
%TO.N,/5_WBO_Rtrim*%
X87160000Y-65040000D03*
%TO.P,P1,112,112_112*%
%TO.N,/EGT+*%
X84620000Y-65040000D03*
%TO.P,P1,113,113_113*%
%TO.N,/EGT-*%
X82080000Y-65040000D03*
D14*
%TO.P,P1,114,114_114*%
%TO.N,/3_WBO_Heater*%
X74250000Y-56910000D03*
%TO.P,P1,115,115_115*%
%TO.N,/6_WBO_Un*%
X68450000Y-56910000D03*
%TO.P,P1,116,116_116*%
%TO.N,/OUT_DC2-*%
X62550000Y-56910000D03*
%TO.P,P1,117,117_117*%
%TO.N,+12V*%
X71350000Y-59240000D03*
%TO.P,P1,118,118_118*%
%TO.N,GND*%
X65450000Y-59240000D03*
%TO.P,P1,119,119_119*%
%TO.N,/OUT_IGN5*%
X74250000Y-65040000D03*
%TO.P,P1,120,120_120*%
%TO.N,/OUT_IGN6*%
X68450000Y-65040000D03*
%TO.P,P1,121,121_121*%
%TO.N,/OUT_DC2+*%
X62550000Y-65040000D03*
%TD*%
D11*
%TO.P,hole8,1*%
%TO.N,N/C*%
X77406190Y-51270000D03*
%TD*%
D16*
%TO.P,J2,1,Pin_1_1*%
%TO.N,/OUT_INJ6*%
X83181190Y-92970000D03*
D17*
%TO.P,J2,2,Pin_2_2*%
%TO.N,/OUT_INJ5*%
X83181190Y-97170000D03*
%TO.P,J2,3,Pin_3_3*%
%TO.N,/OUT_INJ4*%
X83181190Y-101370000D03*
%TO.P,J2,4,Pin_4_4*%
%TO.N,/OUT_INJ3*%
X83181190Y-105570000D03*
%TO.P,J2,5,Pin_5_5*%
%TO.N,/OUT_INJ2*%
X83181190Y-109770000D03*
%TO.P,J2,6,Pin_6_6*%
%TO.N,/OUT_INJ1*%
X83181190Y-113970000D03*
%TO.P,J2,7,Pin_7_7*%
%TO.N,/OUT_LS1*%
X83181190Y-118170000D03*
%TO.P,J2,8,Pin_8_8*%
%TO.N,/OUT_LS_HOT2*%
X83181190Y-122370000D03*
%TO.P,J2,9,Pin_9_9*%
%TO.N,/OUT_LS_HOT1*%
X83181190Y-126570000D03*
%TO.P,J2,10,Pin_10_10*%
%TO.N,/OUT_IGN6*%
X88681190Y-92970000D03*
%TO.P,J2,11,Pin_11_11*%
%TO.N,/OUT_IGN4*%
X88681190Y-97170000D03*
%TO.P,J2,12,Pin_12_12*%
%TO.N,/OUT_IGN3*%
X88681190Y-101370000D03*
%TO.P,J2,13,Pin_13_13*%
%TO.N,/OUT_IGN5*%
X88681190Y-105570000D03*
%TO.P,J2,14,Pin_14_14*%
%TO.N,/OUT_IGN2*%
X88681190Y-109770000D03*
%TO.P,J2,15,Pin_15_15*%
%TO.N,/OUT_IGN1*%
X88681190Y-113970000D03*
%TO.P,J2,16,Pin_16_16*%
%TO.N,/OUT_LS4*%
X88681190Y-118170000D03*
%TO.P,J2,17,Pin_17_17*%
%TO.N,/OUT_LS3*%
X88681190Y-122370000D03*
%TO.P,J2,18,Pin_18_18*%
%TO.N,/OUT_LS2*%
X88681190Y-126570000D03*
%TD*%
D11*
%TO.P,hole4,1*%
%TO.N,N/C*%
X170406190Y-144270000D03*
%TD*%
%TO.P,hole1,1*%
%TO.N,N/C*%
X54246190Y-77750000D03*
%TD*%
%TO.P,hole6,1*%
%TO.N,N/C*%
X184246190Y-77750000D03*
%TD*%
%TO.P,hole2,1*%
%TO.N,N/C*%
X54246190Y-127750000D03*
%TD*%
D18*
%TO.P,J5,1,Pin_1_1*%
%TO.N,+5VP*%
X84506190Y-138495000D03*
D19*
%TO.P,J5,2,Pin_2_2*%
X88706190Y-138495000D03*
%TO.P,J5,3,Pin_3_3*%
%TO.N,/IN_AUX2_WBO_ANALOG*%
X92906190Y-138495000D03*
%TO.P,J5,4,Pin_4_4*%
%TO.N,/IN_PPS2*%
X97106190Y-138495000D03*
%TO.P,J5,5,Pin_5_5*%
%TO.N,/IN_HALL1_SPEED_SENSOR*%
X101306190Y-138495000D03*
%TO.P,J5,6,Pin_6_6*%
%TO.N,/IN_HALL2*%
X105506190Y-138495000D03*
%TO.P,J5,7,Pin_7_7*%
%TO.N,/IN_HALL3*%
X109706190Y-138495000D03*
%TO.P,J5,8,Pin_8_8*%
%TO.N,GND*%
X113906190Y-138495000D03*
%TO.P,J5,9,Pin_9_9*%
%TO.N,/IN_BUTTON3*%
X118106190Y-138495000D03*
%TO.P,J5,10,Pin_10_10*%
%TO.N,/EGT+*%
X122306190Y-138495000D03*
%TO.P,J5,11,Pin_11_11*%
%TO.N,GNDA*%
X84506190Y-132995000D03*
%TO.P,J5,12,Pin_12_12*%
X88706190Y-132995000D03*
%TO.P,J5,13,Pin_13_13*%
X92906190Y-132995000D03*
%TO.P,J5,14,Pin_14_14*%
%TO.N,/IN_TPS2*%
X97106190Y-132995000D03*
%TO.P,J5,15,Pin_15_15*%
%TO.N,/IN_AUX3_FUEL_PRESSURE_SENSOR*%
X101306190Y-132995000D03*
%TO.P,J5,16,Pin_16_16*%
%TO.N,/VR_MAX9924+*%
X105506190Y-132995000D03*
%TO.P,J5,17,Pin_17_17*%
%TO.N,/VR_MAX9924-*%
X109706190Y-132995000D03*
%TO.P,J5,18,Pin_18_18*%
%TO.N,/VR_DISCRETE+*%
X113906190Y-132995000D03*
%TO.P,J5,19,Pin_19_19*%
%TO.N,/VR_DISCRETE-*%
X118106190Y-132995000D03*
%TO.P,J5,20,Pin_20_20*%
%TO.N,/EGT-*%
X122306190Y-132995000D03*
%TD*%
D11*
%TO.P,hole5,1*%
%TO.N,N/C*%
X184246190Y-127750000D03*
%TD*%
D16*
%TO.P,J11,1,Pin_1_1*%
%TO.N,/OUT_DC1-*%
X83181190Y-73570000D03*
D17*
%TO.P,J11,2,Pin_2_2*%
%TO.N,/OUT_DC2-*%
X83181190Y-77770000D03*
%TO.P,J11,3,Pin_3_3*%
%TO.N,GND*%
X83181190Y-81970000D03*
%TO.P,J11,4,Pin_4_4*%
X83181190Y-86170000D03*
%TO.P,J11,5,Pin_5_5*%
%TO.N,/OUT_DC1+*%
X88681190Y-73570000D03*
%TO.P,J11,6,Pin_6_6*%
%TO.N,/OUT_DC2+*%
X88681190Y-77770000D03*
%TO.P,J11,7,Pin_7_7*%
%TO.N,/12V_KEY_VIGN*%
X88681190Y-81970000D03*
%TO.P,J11,8,Pin_8_8*%
%TO.N,+12V*%
X88681190Y-86170000D03*
%TD*%
D20*
%TO.P,J3,1,Pin_1_1*%
%TO.N,+12V*%
X164631190Y-126970000D03*
D17*
%TO.P,J3,2,Pin_2_2*%
%TO.N,/5_WBO_Rtrim*%
X164631190Y-122770000D03*
%TO.P,J3,3,Pin_3_3*%
%TO.N,/3_WBO_Heater*%
X164631190Y-118570000D03*
%TO.P,J3,4,Pin_4_4*%
%TO.N,/6_WBO_Un*%
X159131190Y-126970000D03*
%TO.P,J3,5,Pin_5_5*%
%TO.N,/1_WBO_Ip*%
X159131190Y-122770000D03*
%TO.P,J3,6,Pin_6_6*%
%TO.N,/2_WBO_Vm*%
X159131190Y-118570000D03*
%TD*%
D11*
%TO.P,hole3,1*%
%TO.N,N/C*%
X77406190Y-144270000D03*
%TD*%
D18*
%TO.P,J4,1,Pin_1_1*%
%TO.N,/IN_AUX1_EWG_POS_SENSOR*%
X134206190Y-138495000D03*
D19*
%TO.P,J4,2,Pin_2_2*%
%TO.N,/IN_BUTTON1*%
X138406190Y-138495000D03*
%TO.P,J4,3,Pin_3_3*%
%TO.N,+5VP*%
X142606190Y-138495000D03*
%TO.P,J4,4,Pin_4_4*%
X146806190Y-138495000D03*
%TO.P,J4,5,Pin_5_5*%
%TO.N,/IN_FLEX*%
X151006190Y-138495000D03*
%TO.P,J4,6,Pin_6_6*%
%TO.N,/IN_PPS1*%
X155206190Y-138495000D03*
%TO.P,J4,7,Pin_7_7*%
%TO.N,/CAN+*%
X159406190Y-138495000D03*
%TO.P,J4,8,Pin_8_8*%
%TO.N,/CAN-*%
X163606190Y-138495000D03*
%TO.P,J4,9,Pin_9_9*%
%TO.N,/IN_MAP*%
X134206190Y-132995000D03*
%TO.P,J4,10,Pin_10_10*%
%TO.N,/IN_BUTTON2*%
X138406190Y-132995000D03*
%TO.P,J4,11,Pin_11_11*%
%TO.N,GNDA*%
X142606190Y-132995000D03*
%TO.P,J4,12,Pin_12_12*%
X146806190Y-132995000D03*
%TO.P,J4,13,Pin_13_13*%
%TO.N,/IN_TPS1*%
X151006190Y-132995000D03*
%TO.P,J4,14,Pin_14_14*%
%TO.N,/IN_KNOCK_RAW*%
X155206190Y-132995000D03*
%TO.P,J4,15,Pin_15_15*%
%TO.N,/IN_IAT*%
X159406190Y-132995000D03*
%TO.P,J4,16,Pin_16_16*%
%TO.N,/IN_CLT*%
X163606190Y-132995000D03*
%TD*%
M02*
