%TF.GenerationSoftware,KiCad,Pcbnew,10.0.2*%
%TF.CreationDate,2026-08-25T17:05:41+03:00*%
%TF.ProjectId,368255-2,33363832-3535-42d3-922e-6b696361645f,R0.2*%
%TF.SameCoordinates,Original*%
%TF.FileFunction,Profile,NP*%
%FSLAX46Y46*%
G04 Gerber Fmt 4.6, Leading zero omitted, Abs format (unit mm)*
G04 Created by KiCad (PCBNEW 10.0.2) date 2026-08-25 17:05:41*
%MOMM*%
%LPD*%
G01*
G04 APERTURE LIST*
%TA.AperFunction,Profile*%
%ADD10C,0.381000*%
%TD*%
G04 APERTURE END LIST*
D10*
X40000000Y-59068000D02*
X40000000Y-123568000D01*
X40000000Y-59068000D02*
X47110800Y-59068000D01*
X40000000Y-123568000D02*
G75*
G02*
X40000000Y-126568000I0J-1500000D01*
G01*
X40000000Y-126568000D02*
X40007107Y-150542893D01*
X40858000Y-151558000D02*
G75*
G02*
X40007147Y-150542893I180100J1015100D01*
G01*
X40858000Y-151558000D02*
G75*
G02*
X49840693Y-160000000I130J-8999870D01*
G01*
X49840693Y-160000000D02*
X188155307Y-160000000D01*
X51682800Y-48418000D02*
X51698000Y-54506000D01*
X51698000Y-54506000D02*
G75*
G02*
X47110800Y-59068001I-4569260J7230D01*
G01*
X65411237Y-46000000D02*
X51682800Y-48418000D01*
X65411237Y-46000000D02*
X172587940Y-46000000D01*
X98230000Y-86400000D02*
X98230000Y-113400000D01*
X98230000Y-113400000D02*
X109230000Y-124400000D01*
X109230000Y-75400000D02*
X98230000Y-86400000D01*
X109230000Y-124400000D02*
X138230000Y-124400000D01*
X138230000Y-75400000D02*
X109230000Y-75400000D01*
X138230000Y-124400000D02*
X149230000Y-113400000D01*
X149230000Y-86400000D02*
X138230000Y-75400000D01*
X149230000Y-113400000D02*
X149230000Y-86400000D01*
X172587940Y-46000000D02*
X186298000Y-48418000D01*
X186298000Y-48418000D02*
X186298000Y-54626000D01*
X188155307Y-160000000D02*
G75*
G02*
X197130055Y-151565115I8974993J-557400D01*
G01*
X190798000Y-59068000D02*
G75*
G02*
X186297991Y-54626000I46900J4547900D01*
G01*
X197980948Y-150549999D02*
G75*
G02*
X197130054Y-151565103I-1030948J-1D01*
G01*
X198000000Y-59068000D02*
X190798000Y-59068000D01*
X198000000Y-123568000D02*
X198000000Y-59068000D01*
X198000200Y-126568000D02*
X197980948Y-150549999D01*
X198000200Y-126568000D02*
G75*
G02*
X198000200Y-123568000I-200J1500000D01*
G01*
M02*
