M48
; DRILL file KiCad 10.0.2 date 2026-07-16T21:45:51
; FORMAT={-:-/ absolute / metric / decimal}
; #@! TF.CreationDate,2026-07-16T21:45:51+03:00
; #@! TF.GenerationSoftware,Kicad,Pcbnew,10.0.2
; #@! TF.FileFunction,Plated,1,2,PTH
FMAT,2
METRIC
; #@! TA.AperFunction,Plated,PTH,ViaDrill
T1C0.635
; #@! TA.AperFunction,Plated,PTH,ComponentDrill
T2C1.000
; #@! TA.AperFunction,Plated,PTH,ComponentDrill
T3C1.100
; #@! TA.AperFunction,Plated,PTH,ComponentDrill
T4C1.800
; #@! TA.AperFunction,Plated,PTH,ComponentDrill
T5C2.200
; #@! TA.AperFunction,Plated,PTH,ComponentDrill
T6C3.200
; #@! TA.AperFunction,Plated,PTH,ComponentDrill
T7C3.700
%
G90
G05
T1
X76.357Y-59.5
X76.357Y-62.5
X77.5Y-59.5
X77.5Y-62.5
X78.639Y-59.488
X78.639Y-62.5
T2
X42.5Y-84.5
X42.5Y-88.0
X42.5Y-91.5
X166.0Y-102.5
X167.5Y-78.5
X171.0Y-78.5
X174.5Y-78.5
T3
X82.08Y-53.01
X82.08Y-55.55
X82.08Y-61.6
X82.08Y-64.14
X84.62Y-53.01
X84.62Y-55.55
X84.62Y-61.6
X84.62Y-64.14
X87.16Y-53.01
X87.16Y-55.55
X87.16Y-61.6
X87.16Y-64.14
X89.7Y-53.01
X89.7Y-55.55
X89.7Y-61.6
X89.7Y-64.14
X92.24Y-53.01
X92.24Y-55.55
X92.24Y-61.6
X92.24Y-64.14
X94.78Y-53.01
X94.78Y-55.55
X94.78Y-61.6
X94.78Y-64.14
X97.32Y-53.01
X97.32Y-55.55
X97.32Y-61.6
X97.32Y-64.14
X99.86Y-53.01
X99.86Y-55.55
X99.86Y-61.6
X99.86Y-64.14
X115.83Y-53.01
X115.83Y-55.55
X115.83Y-61.6
X115.83Y-64.14
X118.37Y-53.01
X118.37Y-55.55
X118.37Y-61.6
X118.37Y-64.14
X120.91Y-53.01
X120.91Y-55.55
X120.91Y-61.6
X120.91Y-64.14
X123.45Y-53.01
X123.45Y-55.55
X123.45Y-61.6
X123.45Y-64.14
X125.99Y-53.01
X125.99Y-55.55
X125.99Y-61.6
X125.99Y-64.14
X128.53Y-53.01
X128.53Y-55.55
X128.53Y-61.6
X128.53Y-64.14
X131.07Y-53.01
X131.07Y-55.55
X131.07Y-61.6
X131.07Y-64.14
X133.61Y-53.01
X133.61Y-55.55
X133.61Y-61.6
X133.61Y-64.14
X136.15Y-53.01
X136.15Y-55.55
X136.15Y-61.6
X136.15Y-64.14
X138.69Y-53.01
X138.69Y-55.55
X138.69Y-61.6
X138.69Y-64.14
X141.23Y-53.01
X141.23Y-55.55
X141.23Y-61.6
X141.23Y-64.14
X143.77Y-53.01
X143.77Y-55.55
X143.77Y-61.6
X143.77Y-64.14
X146.31Y-53.01
X146.31Y-55.55
X146.31Y-61.6
X146.31Y-64.14
X148.85Y-53.01
X148.85Y-55.55
X148.85Y-61.6
X148.85Y-64.14
X151.39Y-53.01
X151.39Y-55.55
X151.39Y-61.6
X151.39Y-64.14
X153.93Y-53.01
X153.93Y-55.55
X153.93Y-61.6
X153.93Y-64.14
X156.47Y-53.01
X156.47Y-55.55
X156.47Y-61.6
X156.47Y-64.14
X159.01Y-53.01
X159.01Y-55.55
X159.01Y-61.6
X159.01Y-64.14
X161.55Y-53.01
X161.55Y-55.55
X161.55Y-61.6
X161.55Y-64.14
T4
X83.005Y-72.92
X83.005Y-77.12
X83.005Y-81.32
X83.005Y-85.52
X83.005Y-92.32
X83.005Y-96.52
X83.005Y-100.72
X83.005Y-104.92
X83.005Y-109.12
X83.005Y-113.32
X83.005Y-117.52
X83.005Y-121.72
X83.005Y-125.92
X84.33Y-132.345
X84.33Y-137.845
X88.505Y-72.92
X88.505Y-77.12
X88.505Y-81.32
X88.505Y-85.52
X88.505Y-92.32
X88.505Y-96.52
X88.505Y-100.72
X88.505Y-104.92
X88.505Y-109.12
X88.505Y-113.32
X88.505Y-117.52
X88.505Y-121.72
X88.505Y-125.92
X88.53Y-132.345
X88.53Y-137.845
X92.73Y-132.345
X92.73Y-137.845
X96.93Y-132.345
X96.93Y-137.845
X101.13Y-132.345
X101.13Y-137.845
X105.33Y-132.345
X105.33Y-137.845
X109.53Y-132.345
X109.53Y-137.845
X113.73Y-132.345
X113.73Y-137.845
X117.93Y-132.345
X117.93Y-137.845
X122.13Y-132.345
X122.13Y-137.845
X134.03Y-132.345
X134.03Y-137.845
X138.23Y-132.345
X138.23Y-137.845
X142.43Y-132.345
X142.43Y-137.845
X146.63Y-132.345
X146.63Y-137.845
X150.83Y-132.345
X150.83Y-137.845
X155.03Y-132.345
X155.03Y-137.845
X158.955Y-117.92
X158.955Y-122.12
X158.955Y-126.32
X159.23Y-132.345
X159.23Y-137.845
X163.43Y-132.345
X163.43Y-137.845
X164.455Y-117.92
X164.455Y-122.12
X164.455Y-126.32
T5
X58.1Y-58.81
X62.55Y-56.01
X62.55Y-64.14
X65.45Y-58.34
X68.45Y-56.01
X68.45Y-64.14
X71.35Y-58.34
X74.25Y-56.01
X74.25Y-64.14
X169.45Y-56.01
X169.45Y-64.14
X172.35Y-58.34
X175.25Y-56.01
X175.25Y-64.14
X179.9Y-58.81
T6
X54.07Y-77.1
X54.07Y-127.1
X77.23Y-50.62
X77.23Y-143.62
X170.23Y-50.62
X170.23Y-143.62
X184.07Y-77.1
X184.07Y-127.1
T7
X55.65Y-51.01
X107.85Y-51.01
X182.35Y-51.01
M30
